<?xml version="1.0" encoding="UTF-8" standalone="no"?>
<!-- Generated by IcoMoon.io -->

<svg
   version="1.1"
   width="21.976377"
   height="15.354061"
   viewBox="0 0 21.976377 15.354061"
   id="svg6"
   sodipodi:docname="arrow-up.svg"
   inkscape:version="0.92.3 (2405546, 2018-03-11)"
   xml:space="preserve"
   inkscape:export-filename="bseq.svg"
   inkscape:export-xdpi="96"
   inkscape:export-ydpi="96"
   xmlns:inkscape="http://www.inkscape.org/namespaces/inkscape"
   xmlns:sodipodi="http://sodipodi.sourceforge.net/DTD/sodipodi-0.dtd"
   xmlns="http://www.w3.org/2000/svg"
   xmlns:svg="http://www.w3.org/2000/svg"
   xmlns:rdf="http://www.w3.org/1999/02/22-rdf-syntax-ns#"
   xmlns:cc="http://creativecommons.org/ns#"
   xmlns:dc="http://purl.org/dc/elements/1.1/"><metadata
     id="metadata12"><rdf:RDF><cc:Work
         rdf:about=""><dc:format>image/svg+xml</dc:format><dc:type
           rdf:resource="http://purl.org/dc/dcmitype/StillImage" /><dc:title>uniE093</dc:title></cc:Work></rdf:RDF></metadata><defs
     id="defs10" /><sodipodi:namedview
     pagecolor="#ffffff"
     bordercolor="#666666"
     borderopacity="1"
     objecttolerance="10"
     gridtolerance="10"
     guidetolerance="10"
     inkscape:pageopacity="0"
     inkscape:pageshadow="2"
     inkscape:window-width="1280"
     inkscape:window-height="995"
     id="namedview8"
     showgrid="false"
     inkscape:zoom="7.375"
     inkscape:cx="16"
     inkscape:cy="16"
     inkscape:window-x="1600"
     inkscape:window-y="0"
     inkscape:window-maximized="1"
     inkscape:current-layer="svg6"
     inkscape:showpageshadow="2"
     inkscape:pagecheckerboard="0"
     inkscape:deskcolor="#d1d1d1" /><title
     id="title2">uniE093</title><path
     style="fill:#000000;stroke-width:0.0570976"
     d="m 20.451066,15.149669 c -0.165858,-0.113344 -0.49894,-0.292938 -0.740187,-0.399091 -0.42231,-0.185824 -0.46718,-0.193007 -1.206229,-0.193124 -0.519026,-5.9e-5 -0.900764,0.03218 -1.178813,0.09967 -0.623319,0.151267 -1.019011,0.176194 -1.705203,0.107429 -2.72603,-0.273192 -4.451031,-1.909615 -5.015098,-4.757567 -0.133855,-0.6758505 -0.163604,-2.1621839 -0.0573,-2.8633833 0.4857,-3.2037781 2.570363,-5.1043383 5.598783,-5.1043383 3.185521,0 5.273288,2.0678705 5.624114,5.5705044 0.15612,1.5586997 -0.150952,2.9395762 -0.909918,4.0918442 -0.12925,0.19622 -0.32375,0.448974 -0.432229,0.561675 -0.108477,0.112698 -0.197235,0.235562 -0.197235,0.273024 0,0.03747 0.104859,0.101351 0.233021,0.141962 0.446071,0.14136 1.544535,0.895405 1.510848,1.037129 -0.02847,0.119797 -1.109955,1.636848 -1.168171,1.638651 -0.03015,9.58e-4 -0.190529,-0.09104 -0.356385,-0.204388 z m -3.292674,-2.524917 c 1.198751,-0.43936 1.9078,-1.679764 2.023224,-3.5394035 C 19.353774,6.3116086 18.491851,4.466788 16.847172,4.0888351 15.381379,3.7519819 14.045999,4.4623225 13.487177,5.876144 c -0.598553,1.5143306 -0.539745,3.9839035 0.12732,5.347259 0.228955,0.467928 0.752656,1.039848 1.137614,1.242353 0.679035,0.357204 1.684259,0.423624 2.406276,0.158996 z M -3.0276489e-8,8.4048075 V 2.277115 H 2.5372629 c 3.1625219,0 3.6693314,0.057662 4.5356267,0.5161447 1.0105956,0.5348358 1.57469,1.5641786 1.5255085,2.7836894 -0.01891,0.4688186 -0.04756,0.6035924 -0.1994155,0.9381198 C 8.1850335,6.9863848 7.760699,7.4297919 7.294334,7.6693964 7.1152558,7.7614044 6.9674988,7.868048 6.9659863,7.9063919 c -0.00155,0.038334 0.089781,0.1022023 0.2028546,0.1419029 0.886399,0.3112177 1.5051879,0.9677687 1.7431287,1.8495027 0.1591536,0.5897685 0.1395386,1.5582425 -0.042869,2.1169495 -0.187678,0.574838 -0.4121487,0.940663 -0.8546981,1.392926 -0.416366,0.425506 -0.9792053,0.760875 -1.5994539,0.953039 -0.393231,0.121828 -0.5424903,0.128371 -3.4130797,0.149597 L 5.6697235e-6,14.532499 Z M 5.6716501,12.236759 C 6.2527083,11.910734 6.5004442,11.299185 6.3744916,10.501764 6.2628625,9.7950435 5.8916757,9.4192565 5.1804765,9.2929615 4.9999957,9.2609085 4.3280331,9.2345405 3.6872244,9.2343445 l -1.1651076,-3.54e-4 v 1.6112935 1.61129 l 1.4158055,-0.02072 1.4158084,-0.02071 z M 5.2115388,7.1036185 C 5.7492814,6.8760109 5.9763173,6.4972992 5.9763173,5.8279087 c 0,-0.5006416 -0.093441,-0.7858874 -0.3349815,-1.022541 C 5.302181,4.4730836 5.023541,4.4176895 3.6909801,4.4176895 H 2.5221168 v 1.4336061 1.4335942 l 1.192521,-0.026243 C 4.7724435,7.235403 4.9415465,7.2179077 5.2115388,7.1035926 Z M 9.8691482,4.2075993 c 0,-0.120387 -0.254392,-0.6612997 -0.425575,-0.9049048 C 9.3688352,3.1963487 9.1245372,2.9598448 8.9006748,2.7771352 8.3572975,2.3336255 8.2072059,2.0737692 8.1796761,1.5288514 8.1615015,1.1691061 8.1783711,1.0649702 8.29558,0.8153227 8.5455259,0.2827312 8.9742541,-0.0039187 9.5149732,4.0500595e-5 9.9305482,0.0034905 10.215107,0.1527455 10.520372,0.5288455 10.796186,0.8686682 10.870416,1.1429456 10.86565,1.804717 10.86085,2.4523206 10.743186,3.0645101 10.530008,3.5489008 10.314044,4.0396445 9.8691552,4.4830851 9.8691552,4.2075993 Z"
     id="path267" /></svg>
