<?xml version="1.0" encoding="UTF-8" standalone="no"?>
<!-- Created with Inkscape (http://www.inkscape.org/) -->

<svg
   width="23.381506mm"
   height="23.272951mm"
   viewBox="0 0 23.381506 23.272951"
   version="1.1"
   id="svg5"
   inkscape:version="1.2.2 (732a01da63, 2022-12-09)"
   sodipodi:docname="custom-mincut.svg"
   xmlns:inkscape="http://www.inkscape.org/namespaces/inkscape"
   xmlns:sodipodi="http://sodipodi.sourceforge.net/DTD/sodipodi-0.dtd"
   xmlns="http://www.w3.org/2000/svg"
   xmlns:svg="http://www.w3.org/2000/svg">
  <sodipodi:namedview
     id="namedview7"
     pagecolor="#ffffff"
     bordercolor="#000000"
     borderopacity="0.25"
     inkscape:showpageshadow="2"
     inkscape:pageopacity="0.0"
     inkscape:pagecheckerboard="0"
     inkscape:deskcolor="#d1d1d1"
     inkscape:document-units="mm"
     showgrid="true"
     inkscape:zoom="5.12"
     inkscape:cx="44.53125"
     inkscape:cy="74.21875"
     inkscape:window-width="1920"
     inkscape:window-height="1017"
     inkscape:window-x="-8"
     inkscape:window-y="-8"
     inkscape:window-maximized="1"
     inkscape:current-layer="layer2">
    <inkscape:grid
       type="xygrid"
       id="grid432" />
  </sodipodi:namedview>
  <defs
     id="defs2">
    <clipPath
       clipPathUnits="userSpaceOnUse"
       id="clipPath499">
      <g
         inkscape:label="Clip"
         id="use501" />
    </clipPath>
  </defs>
  <g
     inkscape:label="Capa 1"
     inkscape:groupmode="layer"
     id="layer1"
     transform="translate(-9.5409436,-9.8957825)">
    <path
       style="fill:#000000;stroke-width:0.264583"
       d="M 10.575943,13.126234 31.715014,30.376218 31.68365,13.09487 10.575943,30.376218 Z"
       id="path278" />
  </g>
  <g
     inkscape:groupmode="layer"
     id="layer2"
     inkscape:label="Capa 2">
    <path
       style="fill:#000000;stroke-width:0.000216429"
       d="m 14.373447,23.182714 c 0.759677,-0.07837 1.448926,-0.346178 2.055146,-0.798858 0.197384,-0.147241 0.623398,-0.573337 0.770639,-0.77072 1.087123,-1.456779 1.085568,-3.391352 -0.0032,-4.849684 -0.144132,-0.194193 -0.570146,-0.62029 -0.764421,-0.764422 -1.459888,-1.090232 -3.39446,-1.090232 -4.854346,0 -0.191086,0.144132 -0.618737,0.571701 -0.762868,0.762868 -1.0886769,1.459886 -1.0902329,3.400757 -0.0015,4.852792 0.139387,0.186422 0.473051,0.531046 0.662582,0.684503 0.551414,0.448018 1.232808,0.748717 1.942342,0.855301 0.236568,0.03599 0.739392,0.05169 0.955588,0.02823 z m -0.924179,-1.445815 c -0.213007,-0.04859 -0.42765,-0.125315 -0.607774,-0.214561 -0.06578,-0.03444 -0.120652,-0.06267 -0.120652,-0.06578 0,-0.0015 0.800497,-0.803604 1.777925,-1.781033 l 1.776292,-1.776453 0.07829,0.162945 c 0.09088,0.19264 0.159757,0.393132 0.208345,0.615627 0.03134,0.139389 0.03599,0.205237 0.03599,0.520085 -0.0015,0.339878 -0.0032,0.37121 -0.0454,0.548225 -0.120652,0.512231 -0.347733,0.925732 -0.706427,1.284507 -0.358692,0.358693 -0.786343,0.593706 -1.276654,0.701764 -0.244335,0.05479 -0.247526,0.05479 -0.610884,0.05169 -0.286626,-0.0032 -0.341433,-0.0095 -0.50904,-0.04704 z m -1.798293,-1.431747 c -0.08933,-0.189532 -0.155093,-0.385361 -0.202046,-0.598368 -0.02978,-0.142579 -0.03444,-0.209901 -0.03444,-0.516895 -0.0015,-0.306997 0.0032,-0.372845 0.03444,-0.512233 0.05014,-0.230266 0.11747,-0.42765 0.214643,-0.624954 0.358695,-0.736201 1.00876,-1.240579 1.829623,-1.41923 0.139389,-0.02978 0.206792,-0.03444 0.512232,-0.03444 0.386915,0 0.513788,0.01725 0.816121,0.115906 0.145685,0.04859 0.45268,0.184869 0.45268,0.202045 0,0.01248 -3.529182,3.5417 -3.541697,3.5417 -0.0048,0 -0.04238,-0.06895 -0.08156,-0.153537 z"
       id="path8" />
  </g>
</svg>
