<?xml version="1.0" encoding="UTF-8" standalone="no"?>
<!-- Created with Inkscape (http://www.inkscape.org/) -->

<svg
   width="24"
   height="24"
   viewBox="0 0 24 24"
   version="1.1"
   id="svg820"
   inkscape:version="1.2.2 (732a01da63, 2022-12-09)"
   sodipodi:docname="dscenario-manager.svg"
   xml:space="preserve"
   xmlns:inkscape="http://www.inkscape.org/namespaces/inkscape"
   xmlns:sodipodi="http://sodipodi.sourceforge.net/DTD/sodipodi-0.dtd"
   xmlns="http://www.w3.org/2000/svg"
   xmlns:svg="http://www.w3.org/2000/svg"
   xmlns:rdf="http://www.w3.org/1999/02/22-rdf-syntax-ns#"
   xmlns:cc="http://creativecommons.org/ns#"
   xmlns:dc="http://purl.org/dc/elements/1.1/"><defs
     id="defs814"><clipPath
       clipPathUnits="userSpaceOnUse"
       id="clipPath499"><g
         inkscape:label="Clip"
         id="use501" /></clipPath></defs><sodipodi:namedview
     id="base"
     pagecolor="#8b8b8b"
     bordercolor="#666666"
     borderopacity="1.0"
     inkscape:pageopacity="0"
     inkscape:pageshadow="2"
     inkscape:zoom="22.4"
     inkscape:cx="1.6294643"
     inkscape:cy="4.8883929"
     inkscape:document-units="px"
     inkscape:current-layer="layer1"
     showgrid="true"
     units="px"
     inkscape:window-width="2400"
     inkscape:window-height="1261"
     inkscape:window-x="2391"
     inkscape:window-y="-9"
     inkscape:window-maximized="1"
     showguides="false"
     inkscape:showpageshadow="2"
     inkscape:pagecheckerboard="0"
     inkscape:deskcolor="#8b8b8b"><inkscape:grid
       type="xygrid"
       id="grid1376"
       originx="0"
       originy="0"
       spacingx="0.5"
       spacingy="0.5"
       units="px" /></sodipodi:namedview><metadata
     id="metadata817"><rdf:RDF><cc:Work
         rdf:about=""><dc:format>image/svg+xml</dc:format><dc:type
           rdf:resource="http://purl.org/dc/dcmitype/StillImage" /></cc:Work></rdf:RDF></metadata><g
     inkscape:label="Layer 1"
     inkscape:groupmode="layer"
     id="layer1"
     transform="translate(0,-290.64999)"><path
       style="fill:#000000;fill-rule:evenodd;stroke:none;stroke-width:0;stroke-linecap:butt;stroke-linejoin:miter;stroke-opacity:1;stroke-miterlimit:4;stroke-dasharray:none;fill-opacity:1"
       d="m 5,297.64999 h 2 v 2 H 5 Z"
       id="path823"
       inkscape:connector-curvature="0" /><path
       style="fill:#000000;fill-opacity:1;fill-rule:evenodd;stroke:#000000;stroke-width:0;stroke-linecap:butt;stroke-linejoin:miter;stroke-miterlimit:4;stroke-dasharray:none;stroke-opacity:1"
       d="M 12.5,312.64999 H 1 v -21 h 22 v 12 h -2 v -8 H 3 v 15 h 9.5 z"
       id="path821"
       inkscape:connector-curvature="0"
       sodipodi:nodetypes="ccccccccccc" /><path
       style="fill:#000000;fill-opacity:1;fill-rule:evenodd;stroke:none;stroke-width:0;stroke-linecap:butt;stroke-linejoin:miter;stroke-miterlimit:4;stroke-dasharray:none;stroke-opacity:1"
       d="m 8,297.64999 h 10 v 2 H 8 Z"
       id="path823-3"
       inkscape:connector-curvature="0"
       sodipodi:nodetypes="ccccc" /><path
       style="fill:#000000;fill-opacity:1;fill-rule:evenodd;stroke:none;stroke-width:0;stroke-linecap:butt;stroke-linejoin:miter;stroke-miterlimit:4;stroke-dasharray:none;stroke-opacity:1"
       d="m 5,301.64999 h 2 v 2 H 5 Z"
       id="path823-6"
       inkscape:connector-curvature="0" /><path
       style="fill:#000000;fill-opacity:1;fill-rule:evenodd;stroke:none;stroke-width:0;stroke-linecap:butt;stroke-linejoin:miter;stroke-miterlimit:4;stroke-dasharray:none;stroke-opacity:1"
       d="m 8,301.64999 h 9.934792 v 2 H 8 Z"
       id="path823-3-7"
       inkscape:connector-curvature="0"
       sodipodi:nodetypes="ccccc" /><path
       style="fill:#000000;fill-opacity:1;fill-rule:evenodd;stroke:none;stroke-width:0;stroke-linecap:butt;stroke-linejoin:miter;stroke-miterlimit:4;stroke-dasharray:none;stroke-opacity:1"
       d="m 5,305.64999 h 2 v 2 H 5 Z"
       id="path823-6-5"
       inkscape:connector-curvature="0"
       sodipodi:nodetypes="ccccc" /><path
       style="fill:#000000;fill-opacity:1;fill-rule:evenodd;stroke:none;stroke-width:0;stroke-linecap:butt;stroke-linejoin:miter;stroke-miterlimit:4;stroke-dasharray:none;stroke-opacity:1"
       d="m 8,305.64999 h 4.628218 v 2 H 8 Z"
       id="path823-3-7-3"
       inkscape:connector-curvature="0"
       sodipodi:nodetypes="ccccc" /><g
       transform="matrix(0.00739122,0,0,-0.00869835,13.619051,313.80411)"
       fill="#000000"
       stroke="none"
       id="g221"><path
         d="m 941,799 c -23,-4 -63,-20 -87,-34 -143,-84 -141,-306 3,-376 25,-12 104,-37 176,-55 106,-26 136,-38 155,-59 44,-52 15,-114 -62,-134 -106,-26 -196,1 -224,69 l -17,40 h -79 -78 l 6,-26 c 4,-15 10,-39 13,-55 7,-36 65,-104 107,-126 51,-27 127,-43 202,-43 186,0 304,96 304,246 0,77 -8,100 -51,141 -35,35 -92,57 -258,98 -126,32 -136,37 -148,72 -24,70 27,113 133,113 74,0 124,-28 139,-78 l 9,-32 h 78 c 74,0 78,1 78,23 -1,32 -37,107 -68,140 -38,41 -90,65 -163,77 -73,11 -106,11 -168,-1 z"
         id="path217" /><path
         d="M 0,406 V 20 h 193 c 212,0 260,8 320,54 44,34 89,103 113,176 14,41 19,84 19,175 0,103 -4,128 -24,179 -30,75 -78,128 -144,157 -48,22 -67,24 -264,27 L 0,792 Z m 406,225 c 18,-11 42,-40 55,-68 20,-41 24,-63 24,-148 0,-91 -3,-105 -30,-160 -44,-88 -65,-99 -190,-103 l -105,-4 v 251 251 h 108 c 87,0 113,-4 138,-19 z"
         id="path219" /></g></g><g
     inkscape:groupmode="layer"
     id="layer2"
     inkscape:label="Layer 2" /></svg>
