<?xml version="1.0" encoding="UTF-8" standalone="no"?>
<!-- Created with Inkscape (http://www.inkscape.org/) -->

<svg
   width="24"
   height="24"
   viewBox="0 0 24 24"
   version="1.1"
   id="svg820"
   inkscape:version="1.2.2 (732a01da63, 2022-12-09)"
   sodipodi:docname="epa-manager.svg"
   xml:space="preserve"
   xmlns:inkscape="http://www.inkscape.org/namespaces/inkscape"
   xmlns:sodipodi="http://sodipodi.sourceforge.net/DTD/sodipodi-0.dtd"
   xmlns="http://www.w3.org/2000/svg"
   xmlns:svg="http://www.w3.org/2000/svg"
   xmlns:rdf="http://www.w3.org/1999/02/22-rdf-syntax-ns#"
   xmlns:cc="http://creativecommons.org/ns#"
   xmlns:dc="http://purl.org/dc/elements/1.1/"><defs
     id="defs814"><style
       id="style186">.cls-1{fill:#020202;}</style></defs><sodipodi:namedview
     id="base"
     pagecolor="#8b8b8b"
     bordercolor="#666666"
     borderopacity="1.0"
     inkscape:pageopacity="0"
     inkscape:pageshadow="2"
     inkscape:zoom="11.313709"
     inkscape:cx="34.648232"
     inkscape:cy="9.9878833"
     inkscape:document-units="px"
     inkscape:current-layer="layer1"
     showgrid="true"
     units="px"
     inkscape:window-width="1920"
     inkscape:window-height="1009"
     inkscape:window-x="1912"
     inkscape:window-y="-8"
     inkscape:window-maximized="1"
     showguides="false"
     inkscape:showpageshadow="2"
     inkscape:pagecheckerboard="0"
     inkscape:deskcolor="#8b8b8b"><inkscape:grid
       type="xygrid"
       id="grid1376"
       originx="0"
       originy="0"
       spacingx="0.5"
       spacingy="0.5" /></sodipodi:namedview><metadata
     id="metadata817"><rdf:RDF><cc:Work
         rdf:about=""><dc:format>image/svg+xml</dc:format><dc:type
           rdf:resource="http://purl.org/dc/dcmitype/StillImage" /></cc:Work></rdf:RDF></metadata><g
     inkscape:label="Layer 1"
     inkscape:groupmode="layer"
     id="layer1"
     transform="translate(0,-290.64999)"><path
       style="fill:#000000;fill-rule:evenodd;stroke:none;stroke-width:0;stroke-linecap:butt;stroke-linejoin:miter;stroke-opacity:1;stroke-miterlimit:4;stroke-dasharray:none;fill-opacity:1"
       d="m 5,297.64999 h 2 v 2 H 5 Z"
       id="path823"
       inkscape:connector-curvature="0" /><path
       style="fill:#000000;fill-opacity:1;fill-rule:evenodd;stroke:#000000;stroke-width:0;stroke-linecap:butt;stroke-linejoin:miter;stroke-miterlimit:4;stroke-dasharray:none;stroke-opacity:1"
       d="M 10.003906,312.6578 1,312.64999 v -21 h 22 v 12 h -2 v -8 H 3 v 15 l 7.007929,-5.6e-4 z"
       id="path821"
       inkscape:connector-curvature="0"
       sodipodi:nodetypes="ccccccccccc" /><path
       style="fill:#000000;fill-opacity:1;fill-rule:evenodd;stroke:none;stroke-width:0;stroke-linecap:butt;stroke-linejoin:miter;stroke-miterlimit:4;stroke-dasharray:none;stroke-opacity:1"
       d="m 8,297.64999 h 10 v 2 H 8 Z"
       id="path823-3"
       inkscape:connector-curvature="0"
       sodipodi:nodetypes="ccccc" /><path
       style="fill:#000000;fill-opacity:1;fill-rule:evenodd;stroke:none;stroke-width:0;stroke-linecap:butt;stroke-linejoin:miter;stroke-miterlimit:4;stroke-dasharray:none;stroke-opacity:1"
       d="m 5,301.64999 h 2 v 2 H 5 Z"
       id="path823-6"
       inkscape:connector-curvature="0" /><path
       style="fill:#000000;fill-opacity:1;fill-rule:evenodd;stroke:none;stroke-width:0;stroke-linecap:butt;stroke-linejoin:miter;stroke-miterlimit:4;stroke-dasharray:none;stroke-opacity:1"
       d="m 8,301.64999 h 9.934792 v 2 H 8 Z"
       id="path823-3-7"
       inkscape:connector-curvature="0"
       sodipodi:nodetypes="ccccc" /><path
       style="fill:#000000;fill-opacity:1;fill-rule:evenodd;stroke:none;stroke-width:0;stroke-linecap:butt;stroke-linejoin:miter;stroke-miterlimit:4;stroke-dasharray:none;stroke-opacity:1"
       d="m 5,305.64999 h 2 v 2 H 5 Z"
       id="path823-6-5"
       inkscape:connector-curvature="0"
       sodipodi:nodetypes="ccccc" /><path
       style="fill:#000000;fill-opacity:1;fill-rule:evenodd;stroke:none;stroke-width:0;stroke-linecap:butt;stroke-linejoin:miter;stroke-miterlimit:4;stroke-dasharray:none;stroke-opacity:1"
       d="m 8,305.64999 h 4.628218 v 2 H 8 Z"
       id="path823-3-7-3"
       inkscape:connector-curvature="0"
       sodipodi:nodetypes="ccccc" /><path
       class="cls-1"
       d="m 21.843343,308.31668 c -0.384656,1.37846 -1.602617,2.34009 -3.044741,2.37209 -1.442454,-0.0328 -2.66058,-0.99363 -3.045233,-2.37209 v 0 c 0.192326,0.2245 0.480817,0.32066 0.769308,0.32066 0.288489,0 0.57698,-0.0962 0.769308,-0.32066 0.192327,0.2245 0.480817,0.32066 0.769308,0.32066 0.288492,0 0.57698,-0.0962 0.769308,-0.32066 0.192327,0.2245 0.480816,0.32066 0.769308,0.32066 0.288492,0 0.57698,-0.0962 0.769308,-0.32066 0.192327,0.2245 0.480819,0.32066 0.769308,0.32066 0.288492,0 0.512819,-0.0962 0.705638,-0.32066 m 0.03282,-0.70563 c 0,-1.69878 -1.378453,-3.07707 -3.077069,-3.07707 -1.698615,0 -3.077232,1.37845 -3.077232,3.07707 h 2.756904 c -0.353801,-0.12767 -0.578949,-0.44816 -0.578949,-0.832 0,-0.48082 0.416817,-0.89763 0.897637,-0.89763 0.480816,0 0.897471,0.41681 0.897471,0.89763 0,0.3525 -0.224327,0.70564 -0.544982,0.83331 h 2.724087 m -2.884251,6.82663 c 0.064,-2.62842 2.115435,-4.90418 4.743849,-5.00035 0,2.66042 -2.084089,4.841 -4.743849,5.00035 m -0.384653,0 c -0.06417,-2.62842 -2.115598,-4.90418 -4.775356,-5.00035 0.032,2.66042 2.115432,4.841 4.775356,5.00035"
       id="path190"
       style="stroke-width:0.0164102" /></g><g
     inkscape:groupmode="layer"
     id="layer2"
     inkscape:label="Layer 2" /></svg>
