<?xml version="1.0" encoding="UTF-8" standalone="no"?>
<!-- Created with Inkscape (http://www.inkscape.org/) -->

<svg
   width="24"
   height="24"
   viewBox="0 0 24 24"
   version="1.1"
   id="svg820"
   inkscape:version="1.2.2 (732a01da63, 2022-12-09)"
   sodipodi:docname="epa-selector.svg"
   xml:space="preserve"
   xmlns:inkscape="http://www.inkscape.org/namespaces/inkscape"
   xmlns:sodipodi="http://sodipodi.sourceforge.net/DTD/sodipodi-0.dtd"
   xmlns="http://www.w3.org/2000/svg"
   xmlns:svg="http://www.w3.org/2000/svg"
   xmlns:rdf="http://www.w3.org/1999/02/22-rdf-syntax-ns#"
   xmlns:cc="http://creativecommons.org/ns#"
   xmlns:dc="http://purl.org/dc/elements/1.1/"><defs
     id="defs814"><style
       id="style186">.cls-1{fill:#020202;}</style></defs><sodipodi:namedview
     id="base"
     pagecolor="#8b8b8b"
     bordercolor="#666666"
     borderopacity="1.0"
     inkscape:pageopacity="0"
     inkscape:pageshadow="2"
     inkscape:zoom="11.313709"
     inkscape:cx="12.109203"
     inkscape:cy="10.076271"
     inkscape:document-units="px"
     inkscape:current-layer="layer1"
     showgrid="true"
     units="px"
     inkscape:window-width="1920"
     inkscape:window-height="1009"
     inkscape:window-x="1912"
     inkscape:window-y="-8"
     inkscape:window-maximized="1"
     showguides="false"
     inkscape:showpageshadow="2"
     inkscape:pagecheckerboard="0"
     inkscape:deskcolor="#8b8b8b"><inkscape:grid
       type="xygrid"
       id="grid1376"
       originx="0"
       originy="0"
       spacingx="0.5"
       spacingy="0.5" /></sodipodi:namedview><metadata
     id="metadata817"><rdf:RDF><cc:Work
         rdf:about=""><dc:format>image/svg+xml</dc:format><dc:type
           rdf:resource="http://purl.org/dc/dcmitype/StillImage" /></cc:Work></rdf:RDF></metadata><g
     inkscape:label="Layer 1"
     inkscape:groupmode="layer"
     id="layer1"
     transform="translate(0,-290.64999)"><path
       class="cls-1"
       d="m 14.398597,297.66221 c -0.676387,2.42391 -2.818077,4.11486 -5.353939,4.17113 -2.5364431,-0.0576 -4.6784225,-1.74722 -5.3548048,-4.17113 v 0 c 0.3381903,0.39476 0.8454792,0.56385 1.3527682,0.56385 0.5072853,0 1.0145742,-0.16915 1.3527679,-0.56385 0.3381921,0.39476 0.8454791,0.56385 1.3527684,0.56385 0.5072906,0 1.0145737,-0.16915 1.3527675,-0.56385 0.3381931,0.39476 0.8454776,0.56385 1.3527688,0.56385 0.50729,0 1.014574,-0.16915 1.352768,-0.56385 0.338192,0.39476 0.845482,0.56385 1.352768,0.56385 0.507291,0 0.901752,-0.16915 1.240809,-0.56385 m 0.05771,-1.2408 c 0,-2.98718 -2.423903,-5.41079 -5.4107849,-5.41079 -2.9868825,0 -5.4110728,2.4239 -5.4110728,5.41079 h 4.8478 c -0.6221306,-0.2245 -1.0180364,-0.78806 -1.0180364,-1.46301 0,-0.84548 0.7329399,-1.57841 1.5784242,-1.57841 0.8454784,0 1.5781349,0.73293 1.5781349,1.57841 0,0.61985 -0.394463,1.24082 -0.9583096,1.46531 h 4.7900896 m -5.0717298,12.0041 c 0.112539,-4.62186 3.7198278,-8.62361 8.3416868,-8.79272 0,4.67814 -3.664707,8.51252 -8.3416868,8.79272 m -0.6763822,0 c -0.1128372,-4.62186 -3.7201127,-8.62361 -8.39708935,-8.79272 0.0562695,4.67814 3.71982185,8.51252 8.39709075,8.79272"
       id="path190"
       style="stroke-width:0.0288561" /><g
       id="g191"
       transform="matrix(0.40458398,0,0,0.40458398,14.735064,305.00178)"><path
         d="m 9,23 c 0,0 2,0 2,0 0,0 4,-4.5 4,-4.5 0,0 0,-4.5 0,-4.5 C 15,14 22,4 22,4 17,0 6,0 2,4 c 0,0 7,10 7,10 0,0 0,9 0,9 z"
         fill="#000000"
         id="path179" /><path
         d="M 3,4 C 6,8 17,8 21,4 16,1 8,1 3,4 Z"
         fill="#ffffff"
         id="path181" /></g></g><g
     inkscape:groupmode="layer"
     id="layer2"
     inkscape:label="Layer 2" /></svg>
