<?xml version="1.0" encoding="UTF-8" standalone="no"?>
<svg
   width="24"
   height="24"
   viewBox="0 0 24 24"
   version="1.1"
   id="svg11"
   inkscape:version="1.2.2 (732a01da63, 2022-12-09)"
   sodipodi:docname="expand.svg"
   xml:space="preserve"
   xmlns:inkscape="http://www.inkscape.org/namespaces/inkscape"
   xmlns:sodipodi="http://sodipodi.sourceforge.net/DTD/sodipodi-0.dtd"
   xmlns="http://www.w3.org/2000/svg"
   xmlns:svg="http://www.w3.org/2000/svg"
   xmlns:rdf="http://www.w3.org/1999/02/22-rdf-syntax-ns#"
   xmlns:cc="http://creativecommons.org/ns#"
   xmlns:dc="http://purl.org/dc/elements/1.1/"><metadata
     id="metadata17"><rdf:RDF><cc:Work
         rdf:about=""><dc:format>image/svg+xml</dc:format><dc:type
           rdf:resource="http://purl.org/dc/dcmitype/StillImage" /></cc:Work></rdf:RDF></metadata><defs
     id="defs15" /><sodipodi:namedview
     pagecolor="#878787"
     bordercolor="#666666"
     borderopacity="1"
     objecttolerance="10"
     gridtolerance="10"
     guidetolerance="10"
     inkscape:pageopacity="0"
     inkscape:pageshadow="2"
     inkscape:window-width="1920"
     inkscape:window-height="1009"
     id="namedview13"
     showgrid="true"
     units="px"
     inkscape:zoom="39.333332"
     inkscape:cx="7.1822036"
     inkscape:cy="10.805085"
     inkscape:window-x="1912"
     inkscape:window-y="-8"
     inkscape:window-maximized="1"
     inkscape:current-layer="svg11"
     inkscape:showpageshadow="2"
     inkscape:pagecheckerboard="0"
     inkscape:deskcolor="#878787"><inkscape:grid
       type="xygrid"
       id="grid4473" /></sodipodi:namedview><path
     style="color:#000000;fill:#000000;-inkscape-stroke:none"
     d="M 2,2 V 3.5 22 H 22 V 2 Z M 4,4 H 20 V 20 H 4 Z"
     id="rect738"
     sodipodi:nodetypes="ccccccccccc" /><path
     d="M 5.2935203,4.9388792 8.7018266,6.507903 q 0.1042597,0.048335 0.1304608,0.1169153 0.026201,0.06858 -0.04453,0.1183504 L 7.8039435,7.431502 9.8740373,10.148987 q 0.079038,0.103755 0.084596,0.209786 0.00556,0.106033 -0.065438,0.155706 l -0.6761182,0.473052 q -0.070997,0.04967 -0.1746829,0.0123 -0.1036862,-0.03738 -0.182723,-0.141132 L 6.7895784,8.1412133 5.8057651,8.8295464 q -0.070997,0.04967 -0.1311872,0.0046 -0.060191,-0.04508 -0.076451,-0.154704 L 5.0771085,5.0902964 q -0.016275,-0.109894 0.047876,-0.1547776 0.064151,-0.044883 0.1684099,0.00345 z"
     id="path4"
     inkscape:connector-curvature="0"
     style="stroke-width:0.189761" /><path
     d="m 19.016049,5.1625795 -0.68585,3.6889024 q -0.02131,0.1129264 -0.08138,0.1551363 -0.06007,0.042209 -0.125655,-0.014166 L 17.214711,8.2073418 15.08745,10.880314 q -0.08122,0.102058 -0.182653,0.133435 -0.101427,0.03142 -0.166996,-0.02528 L 14.11347,10.448904 q -0.06556,-0.05666 -0.05474,-0.166341 0.01083,-0.109685 0.09205,-0.211739 L 16.27804,7.3978518 15.369583,6.6127416 q -0.06556,-0.056661 -0.03661,-0.1260586 0.02895,-0.069403 0.13125,-0.1120339 l 3.35199,-1.3847706 q 0.102553,-0.042717 0.161792,0.00849 0.05924,0.051193 0.03793,0.1641193 z"
     id="path4-4"
     inkscape:connector-curvature="0"
     style="stroke-width:0.189761" /><path
     d="m 5.0057316,18.864031 0.7230048,-3.6818 q 0.022441,-0.112704 0.082936,-0.154308 0.06049,-0.0416 0.125505,0.01543 l 0.900496,0.794231 2.1540999,-2.651389 q 0.082244,-0.101234 0.1839897,-0.131587 0.1017383,-0.03039 0.1667322,0.02696 l 0.6188589,0.545828 q 0.06498,0.05732 0.05306,0.166884 -0.01193,0.10957 -0.09417,0.210801 l -2.1540995,2.65139 0.9004956,0.794228 q 0.064981,0.05732 0.035339,0.126422 -0.029652,0.06911 -0.1323718,0.110706 l -3.3657808,1.350907 q -0.1029791,0.04168 -0.1616975,-0.01011 -0.058714,-0.05179 -0.036322,-0.164482 z"
     id="path4-3"
     inkscape:connector-curvature="0"
     style="stroke-width:0.189761" /><path
     d="M 18.733143,19.016007 15.2938,17.516239 q -0.105216,-0.04621 -0.132798,-0.114257 -0.02758,-0.06804 0.04213,-0.119227 l 0.969693,-0.70809 -2.124632,-2.675061 q -0.08112,-0.102131 -0.08883,-0.208032 -0.0077,-0.105897 0.06227,-0.156999 l 0.666413,-0.486629 q 0.06998,-0.05109 0.174398,-0.01583 0.104422,0.03527 0.185542,0.137403 l 2.124632,2.67506 0.96969,-0.708089 q 0.06998,-0.0511 0.131068,-0.0073 0.06109,0.04385 0.07956,0.153127 l 0.593504,3.577873 q 0.0185,0.109543 -0.04473,0.155716 -0.06323,0.04616 -0.168445,5e-6 z"
     id="path4-3-0"
     inkscape:connector-curvature="0"
     style="stroke-width:0.189761" /></svg>
