<?xml version="1.0" encoding="utf-8"?>
<svg viewBox="0.77 1.341 80.082 79.65" xmlns="http://www.w3.org/2000/svg">
  <path id="path54" stroke="black" stroke-width="1" d="M 29.58 32.771 C 39.96 37.501 50.05 33.861 52.94 31.241 C 55.82 28.611 60.54 25.091 65.91 24.021 C 72.27 22.751 80.85 22.271 80.85 20.701 C 80.85 20.701 80.85 20.521 80.85 20.521 C 80.85 20.521 80.85 10.091 80.85 10.091 C 80.85 5.261 76.93 1.341 71.95 1.341 C 71.95 1.341 9.77 1.341 9.77 1.341 C 4.8 1.341 0.77 5.261 0.77 10.091 C 0.77 10.091 0.77 35.661 0.77 35.661 C 3.21 34.691 19.97 28.391 29.58 32.771 M 77.15 31.191 C 75.07 31.441 71.46 30.291 63.6 35.781 C 55.65 41.341 52.65 53.571 37.66 51.271 C 22.93 49.021 6.54 59.211 0.77 56.591 C 0.77 56.591 0.77 72.331 0.77 72.331 C 0.77 77.121 4.8 80.991 9.77 80.991 C 9.77 80.991 71.95 80.991 71.95 80.991 C 76.93 80.991 80.85 77.131 80.85 72.341 C 80.85 72.341 80.85 69.761 80.85 69.761 C 80.85 69.761 80.85 44.481 80.85 44.481 C 80.85 41.791 80.86 34.811 80.83 30.381 C 80.69 30.541 80.01 30.851 77.15 31.191" style="paint-order: fill markers;"/>
</svg>