<?xml version="1.0" encoding="UTF-8" standalone="no"?>
<!-- Created with Inkscape (http://www.inkscape.org/) -->

<svg
   width="24"
   height="24"
   viewBox="0 0 24 24"
   version="1.1"
   id="svg820"
   inkscape:version="1.2.2 (732a01da63, 2022-12-09)"
   sodipodi:docname="go2epa.svg"
   xml:space="preserve"
   xmlns:inkscape="http://www.inkscape.org/namespaces/inkscape"
   xmlns:sodipodi="http://sodipodi.sourceforge.net/DTD/sodipodi-0.dtd"
   xmlns="http://www.w3.org/2000/svg"
   xmlns:svg="http://www.w3.org/2000/svg"
   xmlns:rdf="http://www.w3.org/1999/02/22-rdf-syntax-ns#"
   xmlns:cc="http://creativecommons.org/ns#"
   xmlns:dc="http://purl.org/dc/elements/1.1/"><defs
     id="defs814"><style
       id="style186">.cls-1{fill:#020202;}</style></defs><sodipodi:namedview
     id="base"
     pagecolor="#8b8b8b"
     bordercolor="#666666"
     borderopacity="1.0"
     inkscape:pageopacity="0"
     inkscape:pageshadow="2"
     inkscape:zoom="11.313709"
     inkscape:cx="23.422911"
     inkscape:cy="10.076271"
     inkscape:document-units="px"
     inkscape:current-layer="layer1"
     showgrid="true"
     units="px"
     inkscape:window-width="1920"
     inkscape:window-height="1009"
     inkscape:window-x="1912"
     inkscape:window-y="-8"
     inkscape:window-maximized="1"
     showguides="false"
     inkscape:showpageshadow="2"
     inkscape:pagecheckerboard="0"
     inkscape:deskcolor="#8b8b8b"><inkscape:grid
       type="xygrid"
       id="grid1376"
       originx="0"
       originy="0"
       spacingx="0.5"
       spacingy="0.5" /></sodipodi:namedview><metadata
     id="metadata817"><rdf:RDF><cc:Work
         rdf:about=""><dc:format>image/svg+xml</dc:format><dc:type
           rdf:resource="http://purl.org/dc/dcmitype/StillImage" /></cc:Work></rdf:RDF></metadata><g
     inkscape:label="Layer 1"
     inkscape:groupmode="layer"
     id="layer1"
     transform="translate(0,-290.64999)"><path
       class="cls-1"
       d="m 19.189896,299.92411 c -0.906396,3.24817 -3.776376,5.51414 -7.174569,5.58955 -3.3989718,-0.0772 -6.2693407,-2.34138 -7.1757297,-5.58955 v 0 c 0.4531934,0.529 1.132988,0.7556 1.8127828,0.7556 0.6797899,0 1.3595846,-0.22669 1.8127826,-0.7556 0.4531957,0.529 1.132988,0.7556 1.8127833,0.7556 0.679797,0 1.359584,-0.22669 1.812782,-0.7556 0.453197,0.529 1.132986,0.7556 1.812783,0.7556 0.679797,0 1.359584,-0.22669 1.812783,-0.7556 0.453195,0.529 1.132993,0.7556 1.812783,0.7556 0.679797,0 1.208397,-0.22669 1.662752,-0.7556 m 0.07733,-1.66274 c 0,-4.00297 -3.248161,-7.25075 -7.250746,-7.25075 -4.002585,0 -7.2511318,3.24816 -7.2511318,7.25075 h 6.4963158 c -0.833689,-0.30083 -1.3642242,-1.05603 -1.3642242,-1.96051 0,-1.13299 0.9821792,-2.11515 2.1151742,-2.11515 1.132987,0 2.114785,0.98216 2.114785,2.11515 0,0.83063 -0.528601,1.66276 -1.284186,1.9636 h 6.418986 m -6.796393,16.08614 c 0.150808,-6.19355 4.984771,-11.55611 11.178315,-11.78273 0,6.26897 -4.910908,11.40724 -11.178315,11.78273 m -0.906389,0 C 11.410142,308.15705 6.5761967,302.79449 0.30879365,302.56787 0.38419784,308.83684 5.2935573,313.97511 11.561352,314.3506"
       id="path190"
       style="stroke-width:0.0386687" /></g><g
     inkscape:groupmode="layer"
     id="layer2"
     inkscape:label="Layer 2" /></svg>
