<?xml version='1.0' encoding='utf-8'?>
<svg xmlns="http://www.w3.org/2000/svg" version="1.1" width="582px" height="499px" style="shape-rendering:geometricPrecision; text-rendering:geometricPrecision; image-rendering:optimizeQuality; fill-rule:evenodd; clip-rule:evenodd">
<g />
<g><path style="opacity:1" fill="#c8e7f5" d="M 223.5,51.5 C 213.481,50.2206 203.481,50.2206 193.5,51.5C 193.611,50.8826 193.944,50.3826 194.5,50C 203.5,49.3333 212.5,49.3333 221.5,50C 222.416,50.2784 223.082,50.7784 223.5,51.5 Z" /></g>
<g><path style="opacity:1" fill="#c4e6f4" d="M 368.5,51.5 C 361.146,50.2475 353.813,50.2475 346.5,51.5C 346.611,50.8826 346.944,50.3826 347.5,50C 350.5,49.8333 353.5,49.6667 356.5,49.5C 360.797,49.2783 364.797,49.945 368.5,51.5 Z" /></g>
<g><path style="opacity:1" fill="#70c2e5" d="M 223.5,51.5 C 223.833,51.5 224.167,51.5 224.5,51.5C 224.5,51.8333 224.5,52.1667 224.5,52.5C 213.828,51.2328 203.161,51.2328 192.5,52.5C 192.5,52.1667 192.5,51.8333 192.5,51.5C 192.833,51.5 193.167,51.5 193.5,51.5C 203.481,50.2206 213.481,50.2206 223.5,51.5 Z" /></g>
<g><path style="opacity:1" fill="#6fc2e5" d="M 368.5,51.5 C 370.403,51.7959 372.07,52.4625 373.5,53.5C 364.201,51.2249 354.868,51.0582 345.5,53C 343.559,54.9028 341.226,55.7361 338.5,55.5C 338.833,54.8333 339.167,54.1667 339.5,53.5C 341.746,52.5448 344.079,51.8782 346.5,51.5C 353.813,50.2475 361.146,50.2475 368.5,51.5 Z" /></g>
<g><path style="opacity:1" fill="#41afde" d="M 224.5,52.5 C 225.833,52.8333 227.167,53.1667 228.5,53.5C 230.32,55.4484 232.654,56.4484 235.5,56.5C 236.167,56.5 236.833,56.5 237.5,56.5C 237.842,57.3382 238.508,57.6716 239.5,57.5C 239.973,58.9063 240.973,59.573 242.5,59.5C 243.514,60.6737 244.847,61.3404 246.5,61.5C 246.973,62.9063 247.973,63.573 249.5,63.5C 252.167,66.8333 255.167,69.8333 258.5,72.5C 258.5,72.8333 258.5,73.1667 258.5,73.5C 259.419,76.0892 261.086,78.0892 263.5,79.5C 265.262,80.2623 266.262,81.5956 266.5,83.5C 268.809,88.0141 270.976,92.6807 273,97.5C 273.949,99.0931 275.115,100.426 276.5,101.5C 276.833,102.833 277.167,104.167 277.5,105.5C 277.166,108.491 278.166,110.824 280.5,112.5C 282.076,115.654 283.076,118.987 283.5,122.5C 282.964,125.698 283.631,128.365 285.5,130.5C 285.259,132.898 285.926,134.898 287.5,136.5C 287.336,139.187 287.503,141.854 288,144.5C 288.278,145.416 288.778,146.082 289.5,146.5C 290.451,147.919 290.784,149.585 290.5,151.5C 290.259,153.898 290.926,155.898 292.5,157.5C 294.092,163.825 296.426,169.825 299.5,175.5C 300.338,175.842 300.672,176.508 300.5,177.5C 300.5,178.167 300.5,178.833 300.5,179.5C 300.427,181.027 301.094,182.027 302.5,182.5C 302.427,184.027 303.094,185.027 304.5,185.5C 304.5,186.167 304.5,186.833 304.5,187.5C 304.738,189.404 305.738,190.738 307.5,191.5C 308.338,191.842 308.672,192.508 308.5,193.5C 308.427,195.027 309.094,196.027 310.5,196.5C 310.581,199.513 311.914,201.513 314.5,202.5C 315.338,202.842 315.672,203.508 315.5,204.5C 316.167,207.167 317.833,208.833 320.5,209.5C 323.061,210.767 325.728,210.767 328.5,209.5C 330.404,209.262 331.738,208.262 332.5,206.5C 333.787,205.129 334.453,203.295 334.5,201C 333.73,193.853 333.397,186.686 333.5,179.5C 334.11,178.609 334.443,177.609 334.5,176.5C 336.89,175.109 338.557,173.109 339.5,170.5C 340.5,170.167 341.167,169.5 341.5,168.5C 343.404,168.262 344.738,167.262 345.5,165.5C 346.167,165.5 346.833,165.5 347.5,165.5C 352.772,164.6 358.105,164.267 363.5,164.5C 367.04,165.387 370.373,166.721 373.5,168.5C 374.5,170.167 375.833,171.5 377.5,172.5C 378.167,173.5 378.833,174.5 379.5,175.5C 378.916,178.285 379.916,179.952 382.5,180.5C 382.427,182.027 383.094,183.027 384.5,183.5C 385.338,183.842 385.672,184.508 385.5,185.5C 385.427,187.027 386.094,188.027 387.5,188.5C 388.338,188.842 388.672,189.508 388.5,190.5C 388.427,192.027 389.094,193.027 390.5,193.5C 390.87,196.71 392.203,199.377 394.5,201.5C 395.11,202.391 395.443,203.391 395.5,204.5C 395.557,205.609 395.89,206.609 396.5,207.5C 396.415,210.649 397.415,213.316 399.5,215.5C 399.755,217.967 400.755,219.967 402.5,221.5C 402.989,222.995 403.655,224.329 404.5,225.5C 405.15,227.435 405.483,229.435 405.5,231.5C 405.259,233.898 405.926,235.898 407.5,237.5C 407.12,239.698 407.787,241.365 409.5,242.5C 410.634,245.37 411.3,248.37 411.5,251.5C 411.336,254.187 411.503,256.854 412,259.5C 412.278,260.416 412.778,261.082 413.5,261.5C 413.5,261.833 413.5,262.167 413.5,262.5C 413.833,265.167 414.167,267.833 414.5,270.5C 416.085,294.198 415.751,317.865 413.5,341.5C 413.384,344.86 413.051,348.193 412.5,351.5C 412.5,352.167 412.5,352.833 412.5,353.5C 410.787,354.635 410.12,356.302 410.5,358.5C 410.007,360.806 409.674,363.139 409.5,365.5C 408.566,366.568 408.232,367.901 408.5,369.5C 407.463,370.93 406.796,372.597 406.5,374.5C 404.59,377.452 403.59,380.786 403.5,384.5C 401.844,388.458 400.177,392.458 398.5,396.5C 397.406,399.682 396.072,402.682 394.5,405.5C 392.926,407.102 392.259,409.102 392.5,411.5C 391.326,412.514 390.66,413.847 390.5,415.5C 389.167,415.5 388.5,416.167 388.5,417.5C 387.094,417.973 386.427,418.973 386.5,420.5C 385.89,421.391 385.557,422.391 385.5,423.5C 384.094,423.973 383.427,424.973 383.5,426.5C 382.11,427.899 381.11,429.566 380.5,431.5C 379.094,431.973 378.427,432.973 378.5,434.5C 377.094,434.973 376.427,435.973 376.5,437.5C 375.094,437.973 374.427,438.973 374.5,440.5C 372.75,441.659 371.75,443.326 371.5,445.5C 370.167,445.5 369.5,446.167 369.5,447.5C 368.094,447.973 367.427,448.973 367.5,450.5C 363.216,453.752 359.882,457.752 357.5,462.5C 349.474,470.194 341.474,477.861 333.5,485.5C 329.039,487.734 324.373,488.067 319.5,486.5C 318.5,484.833 317.167,483.5 315.5,482.5C 315.672,481.508 315.338,480.842 314.5,480.5C 314.467,476.131 314.8,471.798 315.5,467.5C 317.237,463.458 318.237,459.124 318.5,454.5C 318.5,444.833 318.5,435.167 318.5,425.5C 318.59,422.848 317.924,420.515 316.5,418.5C 316.634,416.708 316.301,415.042 315.5,413.5C 315.472,410.084 314.472,407.084 312.5,404.5C 312.5,403.167 312.5,401.833 312.5,400.5C 312.002,397.674 310.669,395.34 308.5,393.5C 308.573,391.973 307.906,390.973 306.5,390.5C 306.5,389.833 306.5,389.167 306.5,388.5C 306.573,386.973 305.906,385.973 304.5,385.5C 304.573,383.973 303.906,382.973 302.5,382.5C 302.068,381.29 301.401,380.29 300.5,379.5C 300.262,377.596 299.262,376.262 297.5,375.5C 297.262,373.596 296.262,372.262 294.5,371.5C 292.906,368.236 290.573,365.569 287.5,363.5C 287.167,362.833 286.833,362.167 286.5,361.5C 285.833,358.833 284.167,357.167 281.5,356.5C 280.089,354.086 278.089,352.419 275.5,351.5C 274.29,351.068 273.29,350.401 272.5,349.5C 272.027,348.094 271.027,347.427 269.5,347.5C 268.29,347.068 267.29,346.401 266.5,345.5C 266.027,344.094 265.027,343.427 263.5,343.5C 262.508,343.672 261.842,343.338 261.5,342.5C 261.027,341.094 260.027,340.427 258.5,340.5C 255.947,338.416 252.947,337.083 249.5,336.5C 247.5,335.5 245.5,334.5 243.5,333.5C 241.898,331.926 239.898,331.259 237.5,331.5C 235.958,330.699 234.292,330.366 232.5,330.5C 230.485,329.076 228.152,328.41 225.5,328.5C 219.769,325.923 213.769,323.923 207.5,322.5C 207.167,322.5 206.833,322.5 206.5,322.5C 205.365,320.787 203.698,320.12 201.5,320.5C 201.027,319.094 200.027,318.427 198.5,318.5C 198.027,317.094 197.027,316.427 195.5,316.5C 194.508,316.672 193.842,316.338 193.5,315.5C 192.738,313.738 191.404,312.738 189.5,312.5C 187.596,312.262 186.262,311.262 185.5,309.5C 184.738,307.738 183.404,306.738 181.5,306.5C 180.833,303.167 178.833,301.167 175.5,300.5C 175.167,299.833 174.833,299.167 174.5,298.5C 174.532,296.381 173.532,295.048 171.5,294.5C 171.573,292.973 170.906,291.973 169.5,291.5C 168.925,288.088 167.592,285.088 165.5,282.5C 165.5,282.167 165.5,281.833 165.5,281.5C 164.669,274.869 164.336,268.202 164.5,261.5C 165.11,260.609 165.443,259.609 165.5,258.5C 166.906,258.027 167.573,257.027 167.5,255.5C 167.5,254.833 167.5,254.167 167.5,253.5C 168.906,253.027 169.573,252.027 169.5,250.5C 174.139,245.526 178.805,240.526 183.5,235.5C 185.027,235.573 186.027,234.906 186.5,233.5C 188.544,232.492 190.544,231.492 192.5,230.5C 193.167,230.5 193.833,230.5 194.5,230.5C 200.797,229.68 207.131,229.347 213.5,229.5C 214.833,229.5 216.167,229.5 217.5,229.5C 217.833,229.5 218.167,229.5 218.5,229.5C 220.698,231.397 223.364,232.397 226.5,232.5C 227.833,232.833 229.167,233.167 230.5,233.5C 231.585,235.587 233.251,236.92 235.5,237.5C 235.833,238.5 236.5,239.167 237.5,239.5C 238.167,240.833 239.167,241.833 240.5,242.5C 241.338,242.842 241.672,243.508 241.5,244.5C 241.738,246.404 242.738,247.738 244.5,248.5C 245.401,249.29 246.068,250.29 246.5,251.5C 246.427,253.027 247.094,254.027 248.5,254.5C 248.427,256.027 249.094,257.027 250.5,257.5C 251.434,258.568 251.768,259.901 251.5,261.5C 251.157,263.483 251.824,264.817 253.5,265.5C 253.166,268.491 254.166,270.824 256.5,272.5C 256.5,272.833 256.5,273.167 256.5,273.5C 256.796,275.403 257.463,277.07 258.5,278.5C 259.434,279.568 259.768,280.901 259.5,282.5C 259.166,285.491 260.166,287.824 262.5,289.5C 262.66,291.153 263.326,292.486 264.5,293.5C 264.12,295.698 264.787,297.365 266.5,298.5C 266.5,299.167 266.5,299.833 266.5,300.5C 266.427,302.027 267.094,303.027 268.5,303.5C 268.427,305.027 269.094,306.027 270.5,306.5C 270.427,308.027 271.094,309.027 272.5,309.5C 273.5,312.5 275.5,314.5 278.5,315.5C 279.167,315.833 279.833,316.167 280.5,316.5C 280.973,317.906 281.973,318.573 283.5,318.5C 284.635,320.213 286.302,320.88 288.5,320.5C 293.5,321.833 298.5,321.833 303.5,320.5C 308.399,319.717 312.399,317.383 315.5,313.5C 317.316,311.882 318.649,309.882 319.5,307.5C 321.213,306.365 321.88,304.698 321.5,302.5C 322.383,293.533 322.716,284.533 322.5,275.5C 322.301,271.22 320.968,267.553 318.5,264.5C 318.573,262.973 317.906,261.973 316.5,261.5C 316.672,260.508 316.338,259.842 315.5,259.5C 315.275,256.454 313.942,254.121 311.5,252.5C 311.262,250.596 310.262,249.262 308.5,248.5C 307.243,245.573 305.243,243.239 302.5,241.5C 300.833,239.5 299.167,237.5 297.5,235.5C 296.415,233.413 294.749,232.08 292.5,231.5C 291.738,229.738 290.404,228.738 288.5,228.5C 287.738,226.738 286.404,225.738 284.5,225.5C 282.847,225.34 281.514,224.674 280.5,223.5C 278.967,221.755 276.967,220.755 274.5,220.5C 274.027,219.094 273.027,218.427 271.5,218.5C 270.391,218.443 269.391,218.11 268.5,217.5C 266.967,215.755 264.967,214.755 262.5,214.5C 261.833,214.5 261.5,214.167 261.5,213.5C 259.898,211.926 257.898,211.259 255.5,211.5C 253.167,210.833 250.833,210.167 248.5,209.5C 246.064,208.129 243.397,207.129 240.5,206.5C 238.064,205.129 235.397,204.129 232.5,203.5C 230.064,202.129 227.397,201.129 224.5,200.5C 222.302,200.125 220.302,199.458 218.5,198.5C 214.564,196.871 210.564,195.204 206.5,193.5C 203.947,191.416 200.947,190.083 197.5,189.5C 196.41,188.143 195.076,187.143 193.5,186.5C 191.572,184.706 189.238,183.706 186.5,183.5C 184.847,183.34 183.514,182.674 182.5,181.5C 182.027,180.094 181.027,179.427 179.5,179.5C 178.513,176.914 176.513,175.581 173.5,175.5C 172.089,173.086 170.089,171.419 167.5,170.5C 166.833,170.167 166.167,169.833 165.5,169.5C 162.5,165.833 159.167,162.5 155.5,159.5C 155.573,157.973 154.906,156.973 153.5,156.5C 153.573,154.973 152.906,153.973 151.5,153.5C 151.672,152.508 151.338,151.842 150.5,151.5C 150.573,149.973 149.906,148.973 148.5,148.5C 148.672,147.508 148.338,146.842 147.5,146.5C 145.811,142.161 144.477,137.828 143.5,133.5C 143.843,131.517 143.176,130.183 141.5,129.5C 141.174,121.316 141.508,113.316 142.5,105.5C 143.697,99.5763 145.697,93.9097 148.5,88.5C 150.065,86.4907 151.065,84.1573 151.5,81.5C 153.369,79.9663 154.702,77.9663 155.5,75.5C 164.001,66.7628 173.668,59.7628 184.5,54.5C 187.327,54.4162 189.994,53.7496 192.5,52.5C 203.161,51.2328 213.828,51.2328 224.5,52.5 Z" /></g>
<g><path style="opacity:1" fill="#41afde" d="M 373.5,53.5 C 373.842,54.3382 374.508,54.6716 375.5,54.5C 375.973,55.9063 376.973,56.573 378.5,56.5C 379.391,57.1098 380.391,57.4431 381.5,57.5C 383.5,60.1667 385.833,62.5 388.5,64.5C 388.427,66.0269 389.094,67.0269 390.5,67.5C 390.241,69.9893 391.241,71.656 393.5,72.5C 393.259,74.8984 393.926,76.8984 395.5,78.5C 396.404,79.209 396.737,80.209 396.5,81.5C 396.999,90.364 395.999,99.0307 393.5,107.5C 393.167,108.833 392.833,110.167 392.5,111.5C 391.167,111.5 390.5,112.167 390.5,113.5C 389.094,113.973 388.427,114.973 388.5,116.5C 385.808,118.862 383.141,121.196 380.5,123.5C 378.046,124.227 375.713,125.227 373.5,126.5C 365.285,128.235 356.952,128.902 348.5,128.5C 347.167,128.5 345.833,128.5 344.5,128.5C 343.609,127.89 342.609,127.557 341.5,127.5C 340.508,127.672 339.842,127.338 339.5,126.5C 339.027,125.094 338.027,124.427 336.5,124.5C 334.847,124.34 333.514,123.674 332.5,122.5C 330.5,119.833 328.167,117.5 325.5,115.5C 325.573,113.973 324.906,112.973 323.5,112.5C 323.25,110.326 322.25,108.659 320.5,107.5C 320.5,106.833 320.5,106.167 320.5,105.5C 320.407,95.4813 320.407,85.4813 320.5,75.5C 321.312,73.0554 322.312,70.7221 323.5,68.5C 328.167,64.5 332.5,60.1667 336.5,55.5C 337.167,55.5 337.833,55.5 338.5,55.5C 341.226,55.7361 343.559,54.9028 345.5,53C 354.868,51.0582 364.201,51.2249 373.5,53.5 Z" /></g>
<g><path style="opacity:1" fill="#a0d6ee" d="M 192.5,51.5 C 192.5,51.8333 192.5,52.1667 192.5,52.5C 189.994,53.7496 187.327,54.4162 184.5,54.5C 186.684,52.4152 189.351,51.4152 192.5,51.5 Z" /></g>
<g><path style="opacity:1" fill="#c0e4f3" d="M 224.5,52.5 C 224.5,52.1667 224.5,51.8333 224.5,51.5C 226.898,51.2594 228.898,51.9261 230.5,53.5C 229.833,53.5 229.167,53.5 228.5,53.5C 227.167,53.1667 225.833,52.8333 224.5,52.5 Z" /></g>
<g><path style="opacity:1" fill="#6fc2e5" d="M 228.5,53.5 C 229.167,53.5 229.833,53.5 230.5,53.5C 231.568,54.4345 232.901,54.7678 234.5,54.5C 234.833,55.1667 235.167,55.8333 235.5,56.5C 232.654,56.4484 230.32,55.4484 228.5,53.5 Z" /></g>
<g><path style="opacity:1" fill="#bee3f3" d="M 339.5,53.5 C 339.167,54.1667 338.833,54.8333 338.5,55.5C 337.833,55.5 337.167,55.5 336.5,55.5C 336.973,54.0937 337.973,53.427 339.5,53.5 Z" /></g>
<g><path style="opacity:1" fill="#bae1f3" d="M 234.5,54.5 C 236.027,54.427 237.027,55.0937 237.5,56.5C 236.833,56.5 236.167,56.5 235.5,56.5C 235.167,55.8333 234.833,55.1667 234.5,54.5 Z" /></g>
<g><path style="opacity:1" fill="#8cceea" d="M 375.5,54.5 C 376.167,54.5 376.833,54.5 377.5,54.5C 377.833,55.1667 378.167,55.8333 378.5,56.5C 376.973,56.573 375.973,55.9063 375.5,54.5 Z" /></g>
<g><path style="opacity:1" fill="#d0ebf7" d="M 377.5,54.5 C 379.404,54.7376 380.738,55.7376 381.5,57.5C 380.391,57.4431 379.391,57.1098 378.5,56.5C 378.167,55.8333 377.833,55.1667 377.5,54.5 Z" /></g>
<g><path style="opacity:1" fill="#c4e6f4" d="M 381.5,57.5 C 384.833,58.8333 387.167,61.1667 388.5,64.5C 385.833,62.5 383.5,60.1667 381.5,57.5 Z" /></g>
<g><path style="opacity:1" fill="#a3d8ef" d="M 239.5,57.5 C 241.027,57.427 242.027,58.0937 242.5,59.5C 240.973,59.573 239.973,58.9063 239.5,57.5 Z" /></g>
<g><path style="opacity:1" fill="#d0ebf6" d="M 242.5,59.5 C 244.483,59.1568 245.817,59.8235 246.5,61.5C 244.847,61.3404 243.514,60.6737 242.5,59.5 Z" /></g>
<g><path style="opacity:1" fill="#c8e8f6" d="M 246.5,61.5 C 248.027,61.427 249.027,62.0937 249.5,63.5C 247.973,63.573 246.973,62.9063 246.5,61.5 Z" /></g>
<g><path style="opacity:1" fill="#96d2ec" d="M 184.5,54.5 C 173.668,59.7628 164.001,66.7628 155.5,75.5C 162.121,66.7248 170.454,59.8915 180.5,55C 181.793,54.51 183.127,54.3433 184.5,54.5 Z" /></g>
<g><path style="opacity:1" fill="#8bcdea" d="M 336.5,55.5 C 332.5,60.1667 328.167,64.5 323.5,68.5C 326.833,63.1667 331.167,58.8333 336.5,55.5 Z" /></g>
<g><path style="opacity:1" fill="#c9e8f5" d="M 249.5,63.5 C 253.5,65.5 256.5,68.5 258.5,72.5C 255.167,69.8333 252.167,66.8333 249.5,63.5 Z" /></g>
<g><path style="opacity:1" fill="#99d3ec" d="M 388.5,64.5 C 389.906,64.9731 390.573,65.9731 390.5,67.5C 389.094,67.0269 388.427,66.0269 388.5,64.5 Z" /></g>
<g><path style="opacity:1" fill="#b1def1" d="M 323.5,68.5 C 322.312,70.7221 321.312,73.0554 320.5,75.5C 320.167,75.5 319.833,75.5 319.5,75.5C 319.725,72.4542 321.058,70.1209 323.5,68.5 Z" /></g>
<g><path style="opacity:1" fill="#74c3e6" d="M 390.5,67.5 C 391.89,68.8993 392.89,70.5659 393.5,72.5C 391.241,71.656 390.241,69.9893 390.5,67.5 Z" /></g>
<g><path style="opacity:1" fill="#7cc7e8" d="M 393.5,72.5 C 394.674,73.5137 395.34,74.847 395.5,76.5C 395.5,77.1667 395.5,77.8333 395.5,78.5C 393.926,76.8984 393.259,74.8984 393.5,72.5 Z" /></g>
<g><path style="opacity:1" fill="#7ec8e8" d="M 258.5,73.5 C 260.914,74.9108 262.581,76.9108 263.5,79.5C 261.086,78.0892 259.419,76.0892 258.5,73.5 Z" /></g>
<g><path style="opacity:1" fill="#cbe9f6" d="M 319.5,76.5 C 319.204,78.403 318.537,80.0697 317.5,81.5C 317.12,79.302 317.787,77.6354 319.5,76.5 Z" /></g>
<g><path style="opacity:1" fill="#d0ebf6" d="M 395.5,76.5 C 397.213,77.6354 397.88,79.302 397.5,81.5C 397.167,81.5 396.833,81.5 396.5,81.5C 396.737,80.209 396.404,79.209 395.5,78.5C 395.5,77.8333 395.5,77.1667 395.5,76.5 Z" /></g>
<g><path style="opacity:1" fill="#91cfeb" d="M 155.5,75.5 C 154.702,77.9663 153.369,79.9663 151.5,81.5C 151.845,78.8021 153.178,76.8021 155.5,75.5 Z" /></g>
<g><path style="opacity:1" fill="#57b7e1" d="M 319.5,75.5 C 319.833,75.5 320.167,75.5 320.5,75.5C 320.407,85.4813 320.407,95.4813 320.5,105.5C 319.037,102.797 318.204,99.7974 318,96.5C 317.501,91.5111 317.334,86.5111 317.5,81.5C 318.537,80.0697 319.204,78.403 319.5,76.5C 319.5,76.1667 319.5,75.8333 319.5,75.5 Z" /></g>
<g><path style="opacity:1" fill="#88cce9" d="M 151.5,81.5 C 151.065,84.1573 150.065,86.4907 148.5,88.5C 148.5,87.8333 148.5,87.1667 148.5,86.5C 148.75,84.326 149.75,82.6594 151.5,81.5 Z" /></g>
<g><path style="opacity:1" fill="#85cae9" d="M 266.5,83.5 C 270.838,88.8333 274.171,94.8333 276.5,101.5C 275.115,100.426 273.949,99.0931 273,97.5C 270.976,92.6807 268.809,88.0141 266.5,83.5 Z" /></g>
<g><path style="opacity:1" fill="#8bcdea" d="M 396.5,81.5 C 396.833,81.5 397.167,81.5 397.5,81.5C 398.664,87.3494 398.664,93.3494 397.5,99.5C 396.076,101.515 395.41,103.848 395.5,106.5C 394.833,106.833 394.167,107.167 393.5,107.5C 395.999,99.0307 396.999,90.364 396.5,81.5 Z" /></g>
<g><path style="opacity:1" fill="#b0ddf1" d="M 148.5,86.5 C 148.5,87.1667 148.5,87.8333 148.5,88.5C 145.697,93.9097 143.697,99.5763 142.5,105.5C 142.5,104.167 142.5,102.833 142.5,101.5C 143.35,97.4468 144.516,93.4468 146,89.5C 146.377,88.0577 147.21,87.0577 148.5,86.5 Z" /></g>
<g><path style="opacity:1" fill="#ceeaf6" d="M 317.5,81.5 C 317.334,86.5111 317.501,91.5111 318,96.5C 318.204,99.7974 319.037,102.797 320.5,105.5C 320.5,106.167 320.5,106.833 320.5,107.5C 318.59,106.025 317.424,104.025 317,101.5C 316.179,94.6536 316.346,87.987 317.5,81.5 Z" /></g>
<g><path style="opacity:1" fill="#d2ecf7" d="M 276.5,101.5 C 278.614,102.784 279.614,104.784 279.5,107.5C 278.833,106.833 278.167,106.167 277.5,105.5C 277.167,104.167 276.833,102.833 276.5,101.5 Z" /></g>
<g><path style="opacity:1" fill="#dbeff9" d="M 397.5,99.5 C 397.59,102.152 396.924,104.485 395.5,106.5C 395.41,103.848 396.076,101.515 397.5,99.5 Z" /></g>
<g><path style="opacity:1" fill="#78c5e7" d="M 277.5,105.5 C 278.167,106.167 278.833,106.833 279.5,107.5C 279.629,109.216 279.962,110.883 280.5,112.5C 278.166,110.824 277.166,108.491 277.5,105.5 Z" /></g>
<g />
<g><path style="opacity:1" fill="#cde9f6" d="M 320.5,107.5 C 322.25,108.659 323.25,110.326 323.5,112.5C 320.916,111.952 319.916,110.285 320.5,107.5 Z" /></g>
<g><path style="opacity:1" fill="#c3e5f4" d="M 392.5,111.5 C 392.5,112.833 391.833,113.5 390.5,113.5C 390.5,112.167 391.167,111.5 392.5,111.5 Z" /></g>
<g><path style="opacity:1" fill="#b7e0f2" d="M 323.5,112.5 C 324.906,112.973 325.573,113.973 325.5,115.5C 324.094,115.027 323.427,114.027 323.5,112.5 Z" /></g>
<g><path style="opacity:1" fill="#aadbf0" d="M 390.5,113.5 C 390.573,115.027 389.906,116.027 388.5,116.5C 388.427,114.973 389.094,113.973 390.5,113.5 Z" /></g>
<g><path style="opacity:1" fill="#c4e6f4" d="M 325.5,115.5 C 328.167,117.5 330.5,119.833 332.5,122.5C 329.167,121.167 326.833,118.833 325.5,115.5 Z" /></g>
<g><path style="opacity:1" fill="#c6e6f4" d="M 388.5,116.5 C 387.095,120.236 384.429,122.569 380.5,123.5C 383.141,121.196 385.808,118.862 388.5,116.5 Z" /></g>
<g><path style="opacity:1" fill="#8ecfeb" d="M 336.5,124.5 C 338.027,124.427 339.027,125.094 339.5,126.5C 337.973,126.573 336.973,125.906 336.5,124.5 Z" /></g>
<g><path style="opacity:1" fill="#c3e6f4" d="M 341.5,127.5 C 342.609,127.557 343.609,127.89 344.5,128.5C 344.5,128.833 344.5,129.167 344.5,129.5C 342.973,129.573 341.973,128.906 341.5,127.5 Z" /></g>
<g><path style="opacity:1" fill="#58b8e2" d="M 373.5,126.5 C 371.5,127.5 369.5,128.5 367.5,129.5C 362.228,130.4 356.895,130.733 351.5,130.5C 351.167,130.5 350.833,130.5 350.5,130.5C 349.833,129.833 349.167,129.167 348.5,128.5C 356.952,128.902 365.285,128.235 373.5,126.5 Z" /></g>
<g><path style="opacity:1" fill="#b1def1" d="M 380.5,123.5 C 380.631,124.376 380.298,125.043 379.5,125.5C 376.359,127.306 373.026,128.639 369.5,129.5C 368.833,129.5 368.167,129.5 367.5,129.5C 369.5,128.5 371.5,127.5 373.5,126.5C 375.713,125.227 378.046,124.227 380.5,123.5 Z" /></g>
<g><path style="opacity:1" fill="#6ec1e5" d="M 283.5,122.5 C 284.167,123.833 284.833,125.167 285.5,126.5C 285.5,127.833 285.5,129.167 285.5,130.5C 283.631,128.365 282.964,125.698 283.5,122.5 Z" /></g>
<g><path style="opacity:1" fill="#9cd5ed" d="M 344.5,129.5 C 344.5,129.167 344.5,128.833 344.5,128.5C 345.833,128.5 347.167,128.5 348.5,128.5C 349.167,129.167 349.833,129.833 350.5,130.5C 348.435,130.483 346.435,130.15 344.5,129.5 Z" /></g>
<g><path style="opacity:1" fill="#d5edf7" d="M 367.5,129.5 C 368.167,129.5 368.833,129.5 369.5,129.5C 366.305,131.03 362.805,131.696 359,131.5C 356.31,131.497 353.81,131.164 351.5,130.5C 356.895,130.733 362.228,130.4 367.5,129.5 Z" /></g>
<g><path style="opacity:1" fill="#b2def1" d="M 285.5,126.5 C 286.581,129.627 287.247,132.96 287.5,136.5C 285.926,134.898 285.259,132.898 285.5,130.5C 285.5,129.167 285.5,127.833 285.5,126.5 Z" /></g>
<g><path style="opacity:1" fill="#d1ebf7" d="M 143.5,133.5 C 144.477,137.828 145.811,142.161 147.5,146.5C 143.997,142.969 142.663,138.636 143.5,133.5 Z" /></g>
<g><path style="opacity:1" fill="#a2d7ee" d="M 287.5,136.5 C 288.581,139.627 289.247,142.96 289.5,146.5C 288.778,146.082 288.278,145.416 288,144.5C 287.503,141.854 287.336,139.187 287.5,136.5 Z" /></g>
<g><path style="opacity:1" fill="#b2def1" d="M 148.5,148.5 C 149.906,148.973 150.573,149.973 150.5,151.5C 149.094,151.027 148.427,150.027 148.5,148.5 Z" /></g>
<g><path style="opacity:1" fill="#b8e1f2" d="M 151.5,153.5 C 152.906,153.973 153.573,154.973 153.5,156.5C 152.094,156.027 151.427,155.027 151.5,153.5 Z" /></g>
<g><path style="opacity:1" fill="#96d2ec" d="M 290.5,151.5 C 291.674,152.514 292.34,153.847 292.5,155.5C 292.5,156.167 292.5,156.833 292.5,157.5C 290.926,155.898 290.259,153.898 290.5,151.5 Z" /></g>
<g><path style="opacity:1" fill="#c1e5f4" d="M 153.5,156.5 C 154.906,156.973 155.573,157.973 155.5,159.5C 154.094,159.027 153.427,158.027 153.5,156.5 Z" /></g>
<g><path style="opacity:1" fill="#c4e6f4" d="M 155.5,159.5 C 159.167,162.5 162.5,165.833 165.5,169.5C 161.167,167.167 157.833,163.833 155.5,159.5 Z" /></g>
<g><path style="opacity:1" fill="#8bcdea" d="M 363.5,163.5 C 363.5,163.833 363.5,164.167 363.5,164.5C 358.105,164.267 352.772,164.6 347.5,165.5C 348.589,163.883 350.256,163.05 352.5,163C 356.255,162.245 359.922,162.411 363.5,163.5 Z" /></g>
<g><path style="opacity:1" fill="#c5e6f4" d="M 363.5,164.5 C 363.5,164.167 363.5,163.833 363.5,163.5C 366.647,163.737 369.647,164.57 372.5,166C 373.252,166.671 373.586,167.504 373.5,168.5C 370.373,166.721 367.04,165.387 363.5,164.5 Z" /></g>
<g><path style="opacity:1" fill="#d0ebf6" d="M 292.5,155.5 C 293.117,155.611 293.617,155.944 294,156.5C 295.948,162.839 297.781,169.173 299.5,175.5C 296.426,169.825 294.092,163.825 292.5,157.5C 292.5,156.833 292.5,156.167 292.5,155.5 Z" /></g>
<g><path style="opacity:1" fill="#addcf0" d="M 345.5,165.5 C 344.738,167.262 343.404,168.262 341.5,168.5C 342.262,166.738 343.596,165.738 345.5,165.5 Z" /></g>
<g><path style="opacity:1" fill="#aadbf0" d="M 341.5,168.5 C 341.167,169.5 340.5,170.167 339.5,170.5C 339.5,169.167 340.167,168.5 341.5,168.5 Z" /></g>
<g><path style="opacity:1" fill="#c7e7f5" d="M 373.5,168.5 C 375.833,168.833 377.167,170.167 377.5,172.5C 375.833,171.5 374.5,170.167 373.5,168.5 Z" /></g>
<g><path style="opacity:1" fill="#8dceea" d="M 167.5,170.5 C 170.089,171.419 172.089,173.086 173.5,175.5C 170.911,174.581 168.911,172.914 167.5,170.5 Z" /></g>
<g><path style="opacity:1" fill="#93d1ec" d="M 339.5,170.5 C 338.557,173.109 336.89,175.109 334.5,176.5C 335.473,173.865 337.14,171.865 339.5,170.5 Z" /></g>
<g><path style="opacity:1" fill="#7ec7e8" d="M 173.5,175.5 C 176.513,175.581 178.513,176.914 179.5,179.5C 176.802,179.155 174.802,177.822 173.5,175.5 Z" /></g>
<g><path style="opacity:1" fill="#c0e4f3" d="M 334.5,176.5 C 334.443,177.609 334.11,178.609 333.5,179.5C 333.167,179.5 332.833,179.5 332.5,179.5C 332.427,177.973 333.094,176.973 334.5,176.5 Z" /></g>
<g><path style="opacity:1" fill="#c3e5f4" d="M 300.5,177.5 C 301.906,177.973 302.573,178.973 302.5,180.5C 301.833,180.167 301.167,179.833 300.5,179.5C 300.5,178.833 300.5,178.167 300.5,177.5 Z" /></g>
<g><path style="opacity:1" fill="#7cc6e7" d="M 379.5,175.5 C 381.25,176.659 382.25,178.326 382.5,180.5C 379.916,179.952 378.916,178.285 379.5,175.5 Z" /></g>
<g><path style="opacity:1" fill="#9ed6ee" d="M 179.5,179.5 C 181.027,179.427 182.027,180.094 182.5,181.5C 180.973,181.573 179.973,180.906 179.5,179.5 Z" /></g>
<g><path style="opacity:1" fill="#80c9e8" d="M 300.5,179.5 C 301.167,179.833 301.833,180.167 302.5,180.5C 302.5,181.167 302.5,181.833 302.5,182.5C 301.094,182.027 300.427,181.027 300.5,179.5 Z" /></g>
<g><path style="opacity:1" fill="#9ed5ee" d="M 382.5,180.5 C 383.906,180.973 384.573,181.973 384.5,183.5C 383.094,183.027 382.427,182.027 382.5,180.5 Z" /></g>
<g><path style="opacity:1" fill="#79c6e7" d="M 186.5,183.5 C 189.238,183.706 191.572,184.706 193.5,186.5C 192.833,186.5 192.167,186.5 191.5,186.5C 189.566,185.89 187.899,184.89 186.5,183.5 Z" /></g>
<g><path style="opacity:1" fill="#a1d7ee" d="M 302.5,182.5 C 303.906,182.973 304.573,183.973 304.5,185.5C 303.094,185.027 302.427,184.027 302.5,182.5 Z" /></g>
<g><path style="opacity:1" fill="#bae1f2" d="M 332.5,181.5 C 331.296,186.811 331.296,192.144 332.5,197.5C 331.009,194.814 330.343,191.814 330.5,188.5C 330.667,186.5 330.833,184.5 331,182.5C 331.383,181.944 331.883,181.611 332.5,181.5 Z" /></g>
<g><path style="opacity:1" fill="#66bde3" d="M 332.5,179.5 C 332.833,179.5 333.167,179.5 333.5,179.5C 333.397,186.686 333.73,193.853 334.5,201C 334.453,203.295 333.787,205.129 332.5,206.5C 332.5,203.5 332.5,200.5 332.5,197.5C 331.296,192.144 331.296,186.811 332.5,181.5C 332.5,180.833 332.5,180.167 332.5,179.5 Z" /></g>
<g><path style="opacity:1" fill="#bfe4f3" d="M 304.5,185.5 C 305.906,185.973 306.573,186.973 306.5,188.5C 305.833,188.167 305.167,187.833 304.5,187.5C 304.5,186.833 304.5,186.167 304.5,185.5 Z" /></g>
<g><path style="opacity:1" fill="#a6d9ef" d="M 385.5,185.5 C 386.906,185.973 387.573,186.973 387.5,188.5C 386.094,188.027 385.427,187.027 385.5,185.5 Z" /></g>
<g><path style="opacity:1" fill="#abdbf0" d="M 191.5,186.5 C 192.167,186.5 192.833,186.5 193.5,186.5C 195.076,187.143 196.41,188.143 197.5,189.5C 195.033,189.245 193.033,188.245 191.5,186.5 Z" /></g>
<g><path style="opacity:1" fill="#7ec8e8" d="M 304.5,187.5 C 305.167,187.833 305.833,188.167 306.5,188.5C 307.11,189.391 307.443,190.391 307.5,191.5C 305.738,190.738 304.738,189.404 304.5,187.5 Z" /></g>
<g><path style="opacity:1" fill="#afddf1" d="M 197.5,189.5 C 200.947,190.083 203.947,191.416 206.5,193.5C 203.053,192.917 200.053,191.584 197.5,189.5 Z" /></g>
<g><path style="opacity:1" fill="#b4dff1" d="M 388.5,190.5 C 389.906,190.973 390.573,191.973 390.5,193.5C 389.094,193.027 388.427,192.027 388.5,190.5 Z" /></g>
<g><path style="opacity:1" fill="#90d0eb" d="M 308.5,193.5 C 309.906,193.973 310.573,194.973 310.5,196.5C 309.094,196.027 308.427,195.027 308.5,193.5 Z" /></g>
<g><path style="opacity:1" fill="#d9eef8" d="M 206.5,193.5 C 210.564,195.204 214.564,196.871 218.5,198.5C 213.625,198.631 209.625,196.964 206.5,193.5 Z" /></g>
<g><path style="opacity:1" fill="#b2def1" d="M 390.5,193.5 C 392.771,195.612 394.104,198.279 394.5,201.5C 392.203,199.377 390.87,196.71 390.5,193.5 Z" /></g>
<g><path style="opacity:1" fill="#c0e4f4" d="M 224.5,200.5 C 227.397,201.129 230.064,202.129 232.5,203.5C 229.284,203.655 226.617,202.655 224.5,200.5 Z" /></g>
<g><path style="opacity:1" fill="#82c9e8" d="M 310.5,196.5 C 312.822,197.802 314.155,199.802 314.5,202.5C 311.914,201.513 310.581,199.513 310.5,196.5 Z" /></g>
<g><path style="opacity:1" fill="#ceeaf6" d="M 232.5,203.5 C 235.397,204.129 238.064,205.129 240.5,206.5C 237.189,206.693 234.522,205.693 232.5,203.5 Z" /></g>
<g><path style="opacity:1" fill="#7fc8e8" d="M 315.5,204.5 C 317.5,205.833 319.167,207.5 320.5,209.5C 317.833,208.833 316.167,207.167 315.5,204.5 Z" /></g>
<g><path style="opacity:1" fill="#bee3f3" d="M 395.5,204.5 C 396.906,204.973 397.573,205.973 397.5,207.5C 397.167,207.5 396.833,207.5 396.5,207.5C 395.89,206.609 395.557,205.609 395.5,204.5 Z" /></g>
<g><path style="opacity:1" fill="#9ad4ed" d="M 332.5,206.5 C 331.738,208.262 330.404,209.262 328.5,209.5C 329.262,207.738 330.596,206.738 332.5,206.5 Z" /></g>
<g><path style="opacity:1" fill="#d3ecf7" d="M 240.5,206.5 C 243.397,207.129 246.064,208.129 248.5,209.5C 245.189,209.693 242.522,208.693 240.5,206.5 Z" /></g>
<g><path style="opacity:1" fill="#75c4e6" d="M 396.5,207.5 C 396.833,207.5 397.167,207.5 397.5,207.5C 398.167,209.5 398.833,211.5 399.5,213.5C 399.5,214.167 399.5,214.833 399.5,215.5C 397.415,213.316 396.415,210.649 396.5,207.5 Z" /></g>
<g><path style="opacity:1" fill="#d5edf7" d="M 248.5,209.5 C 250.833,210.167 253.167,210.833 255.5,211.5C 255.5,211.833 255.5,212.167 255.5,212.5C 252.539,212.536 250.206,211.536 248.5,209.5 Z" /></g>
<g><path style="opacity:1" fill="#80c9e8" d="M 255.5,212.5 C 255.5,212.167 255.5,211.833 255.5,211.5C 257.898,211.259 259.898,211.926 261.5,213.5C 259.435,213.483 257.435,213.15 255.5,212.5 Z" /></g>
<g><path style="opacity:1" fill="#ddf0f9" d="M 255.5,212.5 C 257.435,213.15 259.435,213.483 261.5,213.5C 261.5,214.167 261.833,214.5 262.5,214.5C 262.5,214.833 262.5,215.167 262.5,215.5C 259.654,215.448 257.32,214.448 255.5,212.5 Z" /></g>
<g><path style="opacity:1" fill="#c4e6f4" d="M 399.5,213.5 C 400.906,213.973 401.573,214.973 401.5,216.5C 400.833,216.167 400.167,215.833 399.5,215.5C 399.5,214.833 399.5,214.167 399.5,213.5 Z" /></g>
<g><path style="opacity:1" fill="#acdbf0" d="M 262.5,215.5 C 262.5,215.167 262.5,214.833 262.5,214.5C 264.967,214.755 266.967,215.755 268.5,217.5C 266.421,217.029 264.421,216.363 262.5,215.5 Z" /></g>
<g><path style="opacity:1" fill="#88ccea" d="M 399.5,215.5 C 400.167,215.833 400.833,216.167 401.5,216.5C 401.5,216.833 401.5,217.167 401.5,217.5C 401.833,218.833 402.167,220.167 402.5,221.5C 400.755,219.967 399.755,217.967 399.5,215.5 Z" /></g>
<g><path style="opacity:1" fill="#daeff8" d="M 401.5,217.5 C 403.693,219.522 404.693,222.189 404.5,225.5C 403.655,224.329 402.989,222.995 402.5,221.5C 402.167,220.167 401.833,218.833 401.5,217.5 Z" /></g>
<g><path style="opacity:1" fill="#a8daef" d="M 271.5,218.5 C 273.027,218.427 274.027,219.094 274.5,220.5C 272.973,220.573 271.973,219.906 271.5,218.5 Z" /></g>
<g><path style="opacity:1" fill="#a5d8ef" d="M 274.5,220.5 C 276.967,220.755 278.967,221.755 280.5,223.5C 278.033,223.245 276.033,222.245 274.5,220.5 Z" /></g>
<g />
<g><path style="opacity:1" fill="#7dc8e8" d="M 284.5,225.5 C 286.404,225.738 287.738,226.738 288.5,228.5C 286.596,228.262 285.262,227.262 284.5,225.5 Z" /></g>
<g><path style="opacity:1" fill="#acdbf0" d="M 199.5,228.5 C 204.305,227.513 209.305,227.179 214.5,227.5C 215.5,228.167 216.5,228.833 217.5,229.5C 216.167,229.5 214.833,229.5 213.5,229.5C 209.03,228.514 204.363,228.181 199.5,228.5 Z" /></g>
<g><path style="opacity:1" fill="#daeff8" d="M 404.5,225.5 C 406.655,227.617 407.655,230.284 407.5,233.5C 406.833,232.833 406.167,232.167 405.5,231.5C 405.483,229.435 405.15,227.435 404.5,225.5 Z" /></g>
<g><path style="opacity:1" fill="#bce2f3" d="M 197.5,228.5 C 196.5,229.167 195.5,229.833 194.5,230.5C 193.833,230.5 193.167,230.5 192.5,230.5C 193.635,228.787 195.302,228.12 197.5,228.5 Z" /></g>
<g><path style="opacity:1" fill="#d7eef8" d="M 214.5,227.5 C 218.162,227.723 221.495,228.723 224.5,230.5C 222.435,230.483 220.435,230.15 218.5,229.5C 218.167,229.5 217.833,229.5 217.5,229.5C 216.5,228.833 215.5,228.167 214.5,227.5 Z" /></g>
<g><path style="opacity:1" fill="#88cce9" d="M 288.5,228.5 C 290.404,228.738 291.738,229.738 292.5,231.5C 290.596,231.262 289.262,230.262 288.5,228.5 Z" /></g>
<g><path style="opacity:1" fill="#6abfe4" d="M 197.5,228.5 C 198.167,228.5 198.833,228.5 199.5,228.5C 204.363,228.181 209.03,228.514 213.5,229.5C 207.131,229.347 200.797,229.68 194.5,230.5C 195.5,229.833 196.5,229.167 197.5,228.5 Z" /></g>
<g><path style="opacity:1" fill="#b7e0f2" d="M 192.5,230.5 C 190.544,231.492 188.544,232.492 186.5,233.5C 187.687,231.025 189.687,230.025 192.5,230.5 Z" /></g>
<g><path style="opacity:1" fill="#81c9e8" d="M 218.5,229.5 C 220.435,230.15 222.435,230.483 224.5,230.5C 225.167,231.167 225.833,231.833 226.5,232.5C 223.364,232.397 220.698,231.397 218.5,229.5 Z" /></g>
<g><path style="opacity:1" fill="#8acdea" d="M 292.5,231.5 C 294.749,232.08 296.415,233.413 297.5,235.5C 295.251,234.92 293.585,233.587 292.5,231.5 Z" /></g>
<g><path style="opacity:1" fill="#9bd4ed" d="M 186.5,233.5 C 186.027,234.906 185.027,235.573 183.5,235.5C 183.973,234.094 184.973,233.427 186.5,233.5 Z" /></g>
<g><path style="opacity:1" fill="#c4e6f4" d="M 230.5,233.5 C 232.749,234.08 234.415,235.413 235.5,237.5C 233.251,236.92 231.585,235.587 230.5,233.5 Z" /></g>
<g><path style="opacity:1" fill="#7ac7e7" d="M 405.5,231.5 C 406.167,232.167 406.833,232.833 407.5,233.5C 407.5,234.833 407.5,236.167 407.5,237.5C 405.926,235.898 405.259,233.898 405.5,231.5 Z" /></g>
<g><path style="opacity:1" fill="#97d2ec" d="M 183.5,235.5 C 178.805,240.526 174.139,245.526 169.5,250.5C 172.783,244.217 177.45,239.217 183.5,235.5 Z" /></g>
<g><path style="opacity:1" fill="#cbe9f6" d="M 237.5,239.5 C 239.5,239.5 240.5,240.5 240.5,242.5C 239.167,241.833 238.167,240.833 237.5,239.5 Z" /></g>
<g><path style="opacity:1" fill="#a7d9ef" d="M 407.5,233.5 C 408.657,236.273 409.324,239.273 409.5,242.5C 407.787,241.365 407.12,239.698 407.5,237.5C 407.5,236.167 407.5,234.833 407.5,233.5 Z" /></g>
<g><path style="opacity:1" fill="#d1ebf6" d="M 302.5,241.5 C 305.243,243.239 307.243,245.573 308.5,248.5C 305.757,246.761 303.757,244.427 302.5,241.5 Z" /></g>
<g><path style="opacity:1" fill="#87ccea" d="M 241.5,244.5 C 243.262,245.262 244.262,246.596 244.5,248.5C 242.738,247.738 241.738,246.404 241.5,244.5 Z" /></g>
<g><path style="opacity:1" fill="#cae8f5" d="M 308.5,248.5 C 310.262,249.262 311.262,250.596 311.5,252.5C 309.738,251.738 308.738,250.404 308.5,248.5 Z" /></g>
<g><path style="opacity:1" fill="#c9e8f5" d="M 169.5,250.5 C 169.573,252.027 168.906,253.027 167.5,253.5C 167.427,251.973 168.094,250.973 169.5,250.5 Z" /></g>
<g><path style="opacity:1" fill="#a0d6ee" d="M 246.5,251.5 C 247.906,251.973 248.573,252.973 248.5,254.5C 247.094,254.027 246.427,253.027 246.5,251.5 Z" /></g>
<g><path style="opacity:1" fill="#bbe2f2" d="M 248.5,254.5 C 249.906,254.973 250.573,255.973 250.5,257.5C 249.094,257.027 248.427,256.027 248.5,254.5 Z" /></g>
<g><path style="opacity:1" fill="#bbe1f3" d="M 167.5,255.5 C 167.573,257.027 166.906,258.027 165.5,258.5C 165.427,256.973 166.094,255.973 167.5,255.5 Z" /></g>
<g><path style="opacity:1" fill="#c8e7f5" d="M 311.5,252.5 C 313.942,254.121 315.275,256.454 315.5,259.5C 313.801,257.434 312.468,255.1 311.5,252.5 Z" /></g>
<g><path style="opacity:1" fill="#7bc7e8" d="M 411.5,251.5 C 412.581,254.627 413.247,257.96 413.5,261.5C 412.778,261.082 412.278,260.416 412,259.5C 411.503,256.854 411.336,254.187 411.5,251.5 Z" /></g>
<g><path style="opacity:1" fill="#abdcf0" d="M 316.5,261.5 C 317.906,261.973 318.573,262.973 318.5,264.5C 318.167,264.5 317.833,264.5 317.5,264.5C 316.89,263.609 316.557,262.609 316.5,261.5 Z" /></g>
<g><path style="opacity:1" fill="#7fc8e8" d="M 251.5,261.5 C 252.674,262.514 253.34,263.847 253.5,265.5C 251.824,264.817 251.157,263.483 251.5,261.5 Z" /></g>
<g><path style="opacity:1" fill="#71c2e6" d="M 318.5,264.5 C 320.968,267.553 322.301,271.22 322.5,275.5C 320.796,272.061 319.462,268.395 318.5,264.5 Z" /></g>
<g><path style="opacity:1" fill="#d1ebf6" d="M 164.5,261.5 C 164.336,268.202 164.669,274.869 165.5,281.5C 164.778,281.082 164.278,280.416 164,279.5C 163.181,273.319 163.347,267.319 164.5,261.5 Z" /></g>
<g><path style="opacity:1" fill="#94d1ec" d="M 253.5,265.5 C 255.065,267.509 256.065,269.843 256.5,272.5C 254.166,270.824 253.166,268.491 253.5,265.5 Z" /></g>
<g><path style="opacity:1" fill="#b3dff1" d="M 413.5,262.5 C 415.369,264.635 416.036,267.302 415.5,270.5C 415.167,270.5 414.833,270.5 414.5,270.5C 414.167,267.833 413.833,265.167 413.5,262.5 Z" /></g>
<g><path style="opacity:1" fill="#b6e0f2" d="M 256.5,273.5 C 258.213,274.635 258.88,276.302 258.5,278.5C 257.463,277.07 256.796,275.403 256.5,273.5 Z" /></g>
<g><path style="opacity:1" fill="#81c9e9" d="M 259.5,282.5 C 260.167,283.167 260.833,283.833 261.5,284.5C 261.629,286.216 261.962,287.883 262.5,289.5C 260.166,287.824 259.166,285.491 259.5,282.5 Z" /></g>
<g><path style="opacity:1" fill="#d8eef8" d="M 317.5,264.5 C 317.833,264.5 318.167,264.5 318.5,264.5C 319.462,268.395 320.796,272.061 322.5,275.5C 322.716,284.533 322.383,293.533 321.5,302.5C 321.167,302.5 320.833,302.5 320.5,302.5C 322.453,289.556 321.453,276.889 317.5,264.5 Z" /></g>
<g><path style="opacity:1" fill="#c2e5f4" d="M 165.5,282.5 C 167.592,285.088 168.925,288.088 169.5,291.5C 166.835,289.165 165.502,286.165 165.5,282.5 Z" /></g>
<g><path style="opacity:1" fill="#daeff8" d="M 261.5,284.5 C 263.868,286.956 264.868,289.956 264.5,293.5C 263.326,292.486 262.66,291.153 262.5,289.5C 261.962,287.883 261.629,286.216 261.5,284.5 Z" /></g>
<g><path style="opacity:1" fill="#9dd6ed" d="M 169.5,291.5 C 170.906,291.973 171.573,292.973 171.5,294.5C 170.094,294.027 169.427,293.027 169.5,291.5 Z" /></g>
<g><path style="opacity:1" fill="#83c9e8" d="M 171.5,294.5 C 173.532,295.048 174.532,296.381 174.5,298.5C 174.167,298.5 173.833,298.5 173.5,298.5C 172.326,297.486 171.66,296.153 171.5,294.5 Z" /></g>
<g><path style="opacity:1" fill="#9ad4ed" d="M 264.5,293.5 C 265.537,294.93 266.204,296.597 266.5,298.5C 264.787,297.365 264.12,295.698 264.5,293.5 Z" /></g>
<g><path style="opacity:1" fill="#6cc0e4" d="M 414.5,270.5 C 414.833,270.5 415.167,270.5 415.5,270.5C 418.113,292.495 418.113,314.495 415.5,336.5C 414.833,338.167 414.167,339.833 413.5,341.5C 415.751,317.865 416.085,294.198 414.5,270.5 Z" /></g>
<g><path style="opacity:1" fill="#c1e5f3" d="M 266.5,298.5 C 267.906,298.973 268.573,299.973 268.5,301.5C 267.833,301.167 267.167,300.833 266.5,300.5C 266.5,299.833 266.5,299.167 266.5,298.5 Z" /></g>
<g><path style="opacity:1" fill="#ddf0f9" d="M 173.5,298.5 C 173.833,298.5 174.167,298.5 174.5,298.5C 174.833,299.167 175.167,299.833 175.5,300.5C 177.167,302.833 179.167,304.833 181.5,306.5C 181.833,307.167 182.167,307.833 182.5,308.5C 178.105,306.438 175.105,303.104 173.5,298.5 Z" /></g>
<g><path style="opacity:1" fill="#73c3e6" d="M 175.5,300.5 C 178.833,301.167 180.833,303.167 181.5,306.5C 179.167,304.833 177.167,302.833 175.5,300.5 Z" /></g>
<g><path style="opacity:1" fill="#7dc7e7" d="M 266.5,300.5 C 267.167,300.833 267.833,301.167 268.5,301.5C 268.5,302.167 268.5,302.833 268.5,303.5C 267.094,303.027 266.427,302.027 266.5,300.5 Z" /></g>
<g><path style="opacity:1" fill="#daeff8" d="M 415.5,270.5 C 416.117,270.611 416.617,270.944 417,271.5C 418.794,290.981 418.961,310.481 417.5,330C 417.467,332.61 416.8,334.777 415.5,336.5C 418.113,314.495 418.113,292.495 415.5,270.5 Z" /></g>
<g><path style="opacity:1" fill="#8cceeb" d="M 268.5,303.5 C 269.906,303.973 270.573,304.973 270.5,306.5C 269.094,306.027 268.427,305.027 268.5,303.5 Z" /></g>
<g><path style="opacity:1" fill="#7dc7e8" d="M 320.5,302.5 C 320.833,302.5 321.167,302.5 321.5,302.5C 321.88,304.698 321.213,306.365 319.5,307.5C 319.5,307.167 319.5,306.833 319.5,306.5C 320.234,305.292 320.567,303.959 320.5,302.5 Z" /></g>
<g><path style="opacity:1" fill="#84cae9" d="M 181.5,306.5 C 183.404,306.738 184.738,307.738 185.5,309.5C 184.391,309.443 183.391,309.11 182.5,308.5C 182.167,307.833 181.833,307.167 181.5,306.5 Z" /></g>
<g><path style="opacity:1" fill="#8bcdeb" d="M 270.5,306.5 C 271.906,306.973 272.573,307.973 272.5,309.5C 271.094,309.027 270.427,308.027 270.5,306.5 Z" /></g>
<g><path style="opacity:1" fill="#b5dff1" d="M 319.5,306.5 C 319.5,306.833 319.5,307.167 319.5,307.5C 318.649,309.882 317.316,311.882 315.5,313.5C 316.079,310.669 317.412,308.336 319.5,306.5 Z" /></g>
<g><path style="opacity:1" fill="#81c9e8" d="M 272.5,309.5 C 274.833,311.167 276.833,313.167 278.5,315.5C 275.5,314.5 273.5,312.5 272.5,309.5 Z" /></g>
<g><path style="opacity:1" fill="#83cae9" d="M 189.5,312.5 C 191.404,312.738 192.738,313.738 193.5,315.5C 191.596,315.262 190.262,314.262 189.5,312.5 Z" /></g>
<g><path style="opacity:1" fill="#a5d8ef" d="M 315.5,313.5 C 312.399,317.383 308.399,319.717 303.5,320.5C 307.46,318.184 311.46,315.85 315.5,313.5 Z" /></g>
<g><path style="opacity:1" fill="#95d2ec" d="M 195.5,316.5 C 197.027,316.427 198.027,317.094 198.5,318.5C 196.973,318.573 195.973,317.906 195.5,316.5 Z" /></g>
<g><path style="opacity:1" fill="#abdbf0" d="M 280.5,316.5 C 282.027,316.427 283.027,317.094 283.5,318.5C 281.973,318.573 280.973,317.906 280.5,316.5 Z" /></g>
<g><path style="opacity:1" fill="#b4dff2" d="M 198.5,318.5 C 200.027,318.427 201.027,319.094 201.5,320.5C 199.973,320.573 198.973,319.906 198.5,318.5 Z" /></g>
<g><path style="opacity:1" fill="#89cdea" d="M 283.5,318.5 C 285.403,318.796 287.07,319.463 288.5,320.5C 286.302,320.88 284.635,320.213 283.5,318.5 Z" /></g>
<g><path style="opacity:1" fill="#98d2ec" d="M 201.5,320.5 C 203.698,320.12 205.365,320.787 206.5,322.5C 204.597,322.204 202.93,321.537 201.5,320.5 Z" /></g>
<g><path style="opacity:1" fill="#7cc7e7" d="M 207.5,322.5 C 213.769,323.923 219.769,325.923 225.5,328.5C 224.833,328.5 224.167,328.5 223.5,328.5C 222.833,328.5 222.167,328.5 221.5,328.5C 218.061,326.796 214.395,325.462 210.5,324.5C 208.973,324.573 207.973,323.906 207.5,322.5 Z" /></g>
<g><path style="opacity:1" fill="#d8eef8" d="M 210.5,324.5 C 214.395,325.462 218.061,326.796 221.5,328.5C 217.079,328.699 213.413,327.365 210.5,324.5 Z" /></g>
<g><path style="opacity:1" fill="#cceaf6" d="M 223.5,328.5 C 224.167,328.5 224.833,328.5 225.5,328.5C 226.5,329.167 227.5,329.833 228.5,330.5C 226.302,330.88 224.635,330.213 223.5,328.5 Z" /></g>
<g><path style="opacity:1" fill="#75c4e6" d="M 225.5,328.5 C 228.152,328.41 230.485,329.076 232.5,330.5C 231.167,330.5 229.833,330.5 228.5,330.5C 227.5,329.833 226.5,329.167 225.5,328.5 Z" /></g>
<g><path style="opacity:1" fill="#a6d9ef" d="M 228.5,330.5 C 229.833,330.5 231.167,330.5 232.5,330.5C 234.292,330.366 235.958,330.699 237.5,331.5C 237.5,331.833 237.5,332.167 237.5,332.5C 234.273,332.324 231.273,331.657 228.5,330.5 Z" /></g>
<g><path style="opacity:1" fill="#6fc2e5" d="M 237.5,332.5 C 237.5,332.167 237.5,331.833 237.5,331.5C 239.898,331.259 241.898,331.926 243.5,333.5C 241.435,333.483 239.435,333.15 237.5,332.5 Z" /></g>
<g><path style="opacity:1" fill="#c5e6f4" d="M 237.5,332.5 C 239.435,333.15 241.435,333.483 243.5,333.5C 245.5,334.5 247.5,335.5 249.5,336.5C 245.778,335.983 242.112,335.15 238.5,334C 237.944,333.617 237.611,333.117 237.5,332.5 Z" /></g>
<g><path style="opacity:1" fill="#a6d9ef" d="M 249.5,336.5 C 252.947,337.083 255.947,338.416 258.5,340.5C 255.053,339.917 252.053,338.584 249.5,336.5 Z" /></g>
<g><path style="opacity:1" fill="#9ed5ed" d="M 258.5,340.5 C 260.027,340.427 261.027,341.094 261.5,342.5C 259.973,342.573 258.973,341.906 258.5,340.5 Z" /></g>
<g><path style="opacity:1" fill="#bde3f3" d="M 415.5,336.5 C 415.875,341.911 414.875,346.911 412.5,351.5C 413.051,348.193 413.384,344.86 413.5,341.5C 414.167,339.833 414.833,338.167 415.5,336.5 Z" /></g>
<g><path style="opacity:1" fill="#a3d8ee" d="M 263.5,343.5 C 265.027,343.427 266.027,344.094 266.5,345.5C 264.973,345.573 263.973,344.906 263.5,343.5 Z" /></g>
<g><path style="opacity:1" fill="#9ed6ed" d="M 269.5,347.5 C 271.027,347.427 272.027,348.094 272.5,349.5C 270.973,349.573 269.973,348.906 269.5,347.5 Z" /></g>
<g><path style="opacity:1" fill="#8bcdea" d="M 275.5,351.5 C 278.089,352.419 280.089,354.086 281.5,356.5C 278.911,355.581 276.911,353.914 275.5,351.5 Z" /></g>
<g><path style="opacity:1" fill="#76c4e6" d="M 281.5,356.5 C 284.167,357.167 285.833,358.833 286.5,361.5C 284.5,360.167 282.833,358.5 281.5,356.5 Z" /></g>
<g><path style="opacity:1" fill="#92d0ec" d="M 412.5,353.5 C 412.634,355.292 412.301,356.958 411.5,358.5C 411.167,358.5 410.833,358.5 410.5,358.5C 410.12,356.302 410.787,354.635 412.5,353.5 Z" /></g>
<g><path style="opacity:1" fill="#cce9f6" d="M 287.5,363.5 C 290.573,365.569 292.906,368.236 294.5,371.5C 291.427,369.431 289.094,366.764 287.5,363.5 Z" /></g>
<g><path style="opacity:1" fill="#b9e1f2" d="M 410.5,358.5 C 410.833,358.5 411.167,358.5 411.5,358.5C 411.59,361.152 410.924,363.485 409.5,365.5C 409.674,363.139 410.007,360.806 410.5,358.5 Z" /></g>
<g><path style="opacity:1" fill="#c6e6f4" d="M 294.5,371.5 C 296.262,372.262 297.262,373.596 297.5,375.5C 295.738,374.738 294.738,373.404 294.5,371.5 Z" /></g>
<g><path style="opacity:1" fill="#b5e0f2" d="M 408.5,369.5 C 408.59,372.152 407.924,374.485 406.5,376.5C 406.5,375.833 406.5,375.167 406.5,374.5C 406.796,372.597 407.463,370.93 408.5,369.5 Z" /></g>
<g><path style="opacity:1" fill="#bee3f3" d="M 297.5,375.5 C 299.262,376.262 300.262,377.596 300.5,379.5C 298.738,378.738 297.738,377.404 297.5,375.5 Z" /></g>
<g><path style="opacity:1" fill="#88cce9" d="M 406.5,374.5 C 406.5,375.167 406.5,375.833 406.5,376.5C 405.795,379.354 404.795,382.021 403.5,384.5C 403.59,380.786 404.59,377.452 406.5,374.5 Z" /></g>
<g><path style="opacity:1" fill="#9ed5ee" d="M 302.5,382.5 C 303.906,382.973 304.573,383.973 304.5,385.5C 303.094,385.027 302.427,384.027 302.5,382.5 Z" /></g>
<g><path style="opacity:1" fill="#87cce9" d="M 304.5,385.5 C 305.906,385.973 306.573,386.973 306.5,388.5C 305.833,388.167 305.167,387.833 304.5,387.5C 304.5,386.833 304.5,386.167 304.5,385.5 Z" /></g>
<g><path style="opacity:1" fill="#b3def1" d="M 403.5,384.5 C 403.106,388.347 402.106,392.014 400.5,395.5C 399.833,395.833 399.167,396.167 398.5,396.5C 400.177,392.458 401.844,388.458 403.5,384.5 Z" /></g>
<g><path style="opacity:1" fill="#ceeaf6" d="M 304.5,387.5 C 305.167,387.833 305.833,388.167 306.5,388.5C 306.5,389.167 306.5,389.833 306.5,390.5C 305.094,390.027 304.427,389.027 304.5,387.5 Z" /></g>
<g><path style="opacity:1" fill="#b3def1" d="M 306.5,390.5 C 307.906,390.973 308.573,391.973 308.5,393.5C 307.094,393.027 306.427,392.027 306.5,390.5 Z" /></g>
<g><path style="opacity:1" fill="#73c3e6" d="M 308.5,393.5 C 310.669,395.34 312.002,397.674 312.5,400.5C 311.833,399.833 311.167,399.167 310.5,398.5C 309.463,397.07 308.796,395.403 308.5,393.5 Z" /></g>
<g><path style="opacity:1" fill="#bfe4f3" d="M 310.5,398.5 C 311.167,399.167 311.833,399.833 312.5,400.5C 312.5,401.833 312.5,403.167 312.5,404.5C 310.926,402.898 310.259,400.898 310.5,398.5 Z" /></g>
<g><path style="opacity:1" fill="#d4ecf7" d="M 400.5,395.5 C 399.061,399.842 397.061,403.842 394.5,407.5C 394.5,406.833 394.5,406.167 394.5,405.5C 396.072,402.682 397.406,399.682 398.5,396.5C 399.167,396.167 399.833,395.833 400.5,395.5 Z" /></g>
<g><path style="opacity:1" fill="#b2def1" d="M 394.5,405.5 C 394.5,406.167 394.5,406.833 394.5,407.5C 394.34,409.153 393.674,410.486 392.5,411.5C 392.259,409.102 392.926,407.102 394.5,405.5 Z" /></g>
<g><path style="opacity:1" fill="#bbe2f3" d="M 312.5,404.5 C 314.472,407.084 315.472,410.084 315.5,413.5C 313.446,410.992 312.446,407.992 312.5,404.5 Z" /></g>
<g><path style="opacity:1" fill="#c1e4f4" d="M 390.5,415.5 C 390.34,417.153 389.674,418.486 388.5,419.5C 388.5,418.833 388.5,418.167 388.5,417.5C 388.5,416.167 389.167,415.5 390.5,415.5 Z" /></g>
<g><path style="opacity:1" fill="#7ec8e8" d="M 388.5,417.5 C 388.5,418.167 388.5,418.833 388.5,419.5C 387.833,419.833 387.167,420.167 386.5,420.5C 386.427,418.973 387.094,417.973 388.5,417.5 Z" /></g>
<g><path style="opacity:1" fill="#99d3ed" d="M 316.5,418.5 C 317.924,420.515 318.59,422.848 318.5,425.5C 317.076,423.485 316.41,421.152 316.5,418.5 Z" /></g>
<g><path style="opacity:1" fill="#dbeff8" d="M 388.5,419.5 C 388.245,421.967 387.245,423.967 385.5,425.5C 385.5,424.833 385.5,424.167 385.5,423.5C 385.557,422.391 385.89,421.391 386.5,420.5C 387.167,420.167 387.833,419.833 388.5,419.5 Z" /></g>
<g><path style="opacity:1" fill="#9fd6ed" d="M 385.5,423.5 C 385.5,424.167 385.5,424.833 385.5,425.5C 384.833,425.833 384.167,426.167 383.5,426.5C 383.427,424.973 384.094,423.973 385.5,423.5 Z" /></g>
<g><path style="opacity:1" fill="#bee3f3" d="M 383.5,426.5 C 383.759,428.989 382.759,430.656 380.5,431.5C 381.11,429.566 382.11,427.899 383.5,426.5 Z" /></g>
<g><path style="opacity:1" fill="#9cd5ed" d="M 380.5,431.5 C 380.573,433.027 379.906,434.027 378.5,434.5C 378.427,432.973 379.094,431.973 380.5,431.5 Z" /></g>
<g><path style="opacity:1" fill="#9bd4ed" d="M 378.5,434.5 C 378.573,436.027 377.906,437.027 376.5,437.5C 376.427,435.973 377.094,434.973 378.5,434.5 Z" /></g>
<g><path style="opacity:1" fill="#9fd6ee" d="M 376.5,437.5 C 376.573,439.027 375.906,440.027 374.5,440.5C 374.427,438.973 375.094,437.973 376.5,437.5 Z" /></g>
<g><path style="opacity:1" fill="#aeddf1" d="M 374.5,440.5 C 374.25,442.674 373.25,444.341 371.5,445.5C 371.75,443.326 372.75,441.659 374.5,440.5 Z" /></g>
<g><path style="opacity:1" fill="#a4d8ef" d="M 371.5,445.5 C 371.167,446.5 370.5,447.167 369.5,447.5C 369.5,446.167 370.167,445.5 371.5,445.5 Z" /></g>
<g><path style="opacity:1" fill="#b3dff1" d="M 369.5,447.5 C 369.573,449.027 368.906,450.027 367.5,450.5C 367.427,448.973 368.094,447.973 369.5,447.5 Z" /></g>
<g><path style="opacity:1" fill="#b4dff2" d="M 367.5,450.5 C 364.641,454.878 361.308,458.878 357.5,462.5C 359.882,457.752 363.216,453.752 367.5,450.5 Z" /></g>
<g><path style="opacity:1" fill="#95d2ec" d="M 318.5,454.5 C 318.237,459.124 317.237,463.458 315.5,467.5C 315.952,463.837 316.452,460.17 317,456.5C 317.278,455.584 317.778,454.918 318.5,454.5 Z" /></g>
<g><path style="opacity:1" fill="#a6d9ef" d="M 315.5,467.5 C 314.8,471.798 314.467,476.131 314.5,480.5C 313.839,478.866 313.506,477.033 313.5,475C 313.3,472.134 313.967,469.634 315.5,467.5 Z" /></g>
<g><path style="opacity:1" fill="#c6e6f4" d="M 357.5,462.5 C 351.762,469.744 345.428,476.577 338.5,483C 336.922,484.094 335.255,484.928 333.5,485.5C 341.474,477.861 349.474,470.194 357.5,462.5 Z" /></g>
<g><path style="opacity:1" fill="#afddf0" d="M 315.5,482.5 C 317.167,483.5 318.5,484.833 319.5,486.5C 317.167,486.167 315.833,484.833 315.5,482.5 Z" /></g>
<g><path style="opacity:1" fill="#afddf1" d="M 333.5,485.5 C 331.763,488.012 329.263,489.012 326,488.5C 324.167,488.333 322.333,488.167 320.5,488C 319.944,487.617 319.611,487.117 319.5,486.5C 324.373,488.067 329.039,487.734 333.5,485.5 Z" /></g>
</svg>