<?xml version="1.0" encoding="UTF-8" standalone="no"?>
<!-- Created with Inkscape (http://www.inkscape.org/) -->

<svg
   width="24"
   height="24"
   viewBox="0 0 24 24"
   version="1.1"
   id="svg820"
   inkscape:version="1.2.2 (732a01da63, 2022-12-09)"
   sodipodi:docname="mincut-manager.svg"
   xmlns:inkscape="http://www.inkscape.org/namespaces/inkscape"
   xmlns:sodipodi="http://sodipodi.sourceforge.net/DTD/sodipodi-0.dtd"
   xmlns="http://www.w3.org/2000/svg"
   xmlns:svg="http://www.w3.org/2000/svg"
   xmlns:rdf="http://www.w3.org/1999/02/22-rdf-syntax-ns#"
   xmlns:cc="http://creativecommons.org/ns#"
   xmlns:dc="http://purl.org/dc/elements/1.1/">
  <defs
     id="defs814" />
  <sodipodi:namedview
     id="base"
     pagecolor="#8b8b8b"
     bordercolor="#666666"
     borderopacity="1.0"
     inkscape:pageopacity="0"
     inkscape:pageshadow="2"
     inkscape:zoom="3.959798"
     inkscape:cx="-30.557114"
     inkscape:cy="49.244936"
     inkscape:document-units="px"
     inkscape:current-layer="layer2"
     showgrid="true"
     units="px"
     inkscape:window-width="1920"
     inkscape:window-height="1017"
     inkscape:window-x="1912"
     inkscape:window-y="-8"
     inkscape:window-maximized="1"
     showguides="false"
     inkscape:showpageshadow="2"
     inkscape:pagecheckerboard="0"
     inkscape:deskcolor="#8b8b8b">
    <inkscape:grid
       type="xygrid"
       id="grid1376"
       originx="0"
       originy="0"
       spacingx="0.5"
       spacingy="0.5" />
  </sodipodi:namedview>
  <metadata
     id="metadata817">
    <rdf:RDF>
      <cc:Work
         rdf:about="">
        <dc:format>image/svg+xml</dc:format>
        <dc:type
           rdf:resource="http://purl.org/dc/dcmitype/StillImage" />
      </cc:Work>
    </rdf:RDF>
  </metadata>
  <g
     inkscape:label="Layer 1"
     inkscape:groupmode="layer"
     id="layer1"
     transform="translate(0,-290.64999)">
    <path
       style="fill:#000000;fill-rule:evenodd;stroke:none;stroke-width:0;stroke-linecap:butt;stroke-linejoin:miter;stroke-opacity:1;stroke-miterlimit:4;stroke-dasharray:none;fill-opacity:1"
       d="m 5,297.64999 h 2 v 2 H 5 Z"
       id="path823"
       inkscape:connector-curvature="0" />
    <path
       style="fill:#000000;fill-opacity:1;fill-rule:evenodd;stroke:#000000;stroke-width:0;stroke-linecap:butt;stroke-linejoin:miter;stroke-miterlimit:4;stroke-dasharray:none;stroke-opacity:1"
       d="M 12.5,312.64999 H 1 v -21 h 22 v 12 h -2 v -8 H 3 v 15 h 9.5 z"
       id="path821"
       inkscape:connector-curvature="0"
       sodipodi:nodetypes="ccccccccccc" />
    <path
       style="fill:#000000;fill-opacity:1;fill-rule:evenodd;stroke:none;stroke-width:0;stroke-linecap:butt;stroke-linejoin:miter;stroke-miterlimit:4;stroke-dasharray:none;stroke-opacity:1"
       d="m 8,297.64999 h 10 v 2 H 8 Z"
       id="path823-3"
       inkscape:connector-curvature="0"
       sodipodi:nodetypes="ccccc" />
    <path
       style="fill:#000000;fill-opacity:1;fill-rule:evenodd;stroke:none;stroke-width:0;stroke-linecap:butt;stroke-linejoin:miter;stroke-miterlimit:4;stroke-dasharray:none;stroke-opacity:1"
       d="m 5,301.64999 h 2 v 2 H 5 Z"
       id="path823-6"
       inkscape:connector-curvature="0" />
    <path
       style="fill:#000000;fill-opacity:1;fill-rule:evenodd;stroke:none;stroke-width:0;stroke-linecap:butt;stroke-linejoin:miter;stroke-miterlimit:4;stroke-dasharray:none;stroke-opacity:1"
       d="m 8,301.64999 h 9.934792 v 2 H 8 Z"
       id="path823-3-7"
       inkscape:connector-curvature="0"
       sodipodi:nodetypes="ccccc" />
    <path
       style="fill:#000000;fill-opacity:1;fill-rule:evenodd;stroke:none;stroke-width:0;stroke-linecap:butt;stroke-linejoin:miter;stroke-miterlimit:4;stroke-dasharray:none;stroke-opacity:1"
       d="m 5,305.64999 h 2 v 2 H 5 Z"
       id="path823-6-5"
       inkscape:connector-curvature="0"
       sodipodi:nodetypes="ccccc" />
    <path
       style="fill:#000000;fill-opacity:1;fill-rule:evenodd;stroke:none;stroke-width:0;stroke-linecap:butt;stroke-linejoin:miter;stroke-miterlimit:4;stroke-dasharray:none;stroke-opacity:1"
       d="m 8,305.64999 h 4.628218 v 2 H 8 Z"
       id="path823-3-7-3"
       inkscape:connector-curvature="0"
       sodipodi:nodetypes="ccccc" />
  </g>
  <g
     inkscape:groupmode="layer"
     id="layer2"
     inkscape:label="Layer 2">
    <path
       id="path111-2-98"
       style="fill:#000000;stroke-width:0.10243"
       d="m 23.559654,16.48841 a 1.3737148,1.3737148 0 0 1 -1.373715,1.373715 1.3737148,1.3737148 0 0 1 -1.373714,-1.373715 1.3737148,1.3737148 0 0 1 1.373714,-1.373714 1.3737148,1.3737148 0 0 1 1.373715,1.373714 z m -0.04524,5.529604 a 1.3284777,1.3284777 0 0 1 -1.328478,1.328477 1.3284777,1.3284777 0 0 1 -1.328477,-1.328477 1.3284777,1.3284777 0 0 1 1.328477,-1.328478 1.3284777,1.3284777 0 0 1 1.328478,1.328478 z m -6.887023,0 a 1.4057022,1.4057022 0 0 1 -1.405702,1.405702 1.4057022,1.4057022 0 0 1 -1.405702,-1.405702 1.4057022,1.4057022 0 0 1 1.405702,-1.405703 1.4057022,1.4057022 0 0 1 1.405702,1.405703 z m -0.07723,-6.964248 a 1.3284777,1.3284777 0 0 1 -1.328477,1.328477 1.3284777,1.3284777 0 0 1 -1.328478,-1.328477 1.3284777,1.3284777 0 0 1 1.328478,-1.328478 1.3284777,1.3284777 0 0 1 1.328477,1.328478 z m 5.359763,6.228254 v 1.471988 H 15.712153 V 21.28202 Z m -0.459987,-5.052218 h 1.471988 v 5.714855 h -1.471988 z m -6.964247,-0.74077 h 1.471987 V 21.68681 H 14.48569 Z" />
  </g>
</svg>
