<?xml version="1.0" encoding="UTF-8" standalone="no"?>
<svg
   viewBox="2 1 20 22"
   version="1.1"
   id="svg146"
   sodipodi:docname="parcelfilter.svg"
   inkscape:version="1.2.2 (732a01da63, 2022-12-09)"
   xmlns:inkscape="http://www.inkscape.org/namespaces/inkscape"
   xmlns:sodipodi="http://sodipodi.sourceforge.net/DTD/sodipodi-0.dtd"
   xmlns="http://www.w3.org/2000/svg"
   xmlns:svg="http://www.w3.org/2000/svg">
  <defs
     id="defs150" />
  <sodipodi:namedview
     id="namedview148"
     pagecolor="#ffffff"
     bordercolor="#000000"
     borderopacity="0.25"
     inkscape:showpageshadow="2"
     inkscape:pageopacity="0.0"
     inkscape:pagecheckerboard="0"
     inkscape:deskcolor="#d1d1d1"
     showgrid="false"
     inkscape:zoom="12.952911"
     inkscape:cx="14.089497"
     inkscape:cy="22.620399"
     inkscape:window-width="1920"
     inkscape:window-height="1009"
     inkscape:window-x="1912"
     inkscape:window-y="-8"
     inkscape:window-maximized="1"
     inkscape:current-layer="svg146" />
  <path
     d="m 10.174658,16.830004 c 0,0 1.303729,0 1.303729,0 0,0 2.607458,-3.19768 2.607458,-3.19768 0,0 0,-3.19768 0,-3.19768 0,0 4.563053,-7.1059587 4.563053,-7.1059587 -3.259325,-2.84238256 -10.4298368,-2.84238256 -13.0372943,0 0,0 4.5630543,7.1059587 4.5630543,7.1059587 0,0 0,6.39536 0,6.39536 z"
     fill="#000000"
     id="path142"
     style="stroke-width:0.680598" />
  <path
     id="path217"
     style="stroke-width:0.0301917"
     d="m 12.157391,6.1183887 c -0.0085,0.00213 -0.01496,0.0038 -0.02253,0.00683 -6.43e-4,0.00191 -0.0027,0.00358 -0.0035,0.00549 0.0092,-0.00246 0.02034,-0.00527 0.03122,-0.010971 -6.36e-4,-0.0011 -0.0015,-0.00235 -0.0052,-0.00135 z m -0.02947,0.023363 c -8.18e-4,0.00179 -4.32e-4,0.0037 -0.0017,0.00549 -0.0062,0.012404 -0.01792,0.019826 -0.03122,0.026106 0.01731,-0.00459 0.03282,-0.00672 0.03642,0.00414 0.0028,-8.73e-5 0.0059,8.85e-5 0.0087,0 0.0054,-0.012068 0.01064,-0.023554 0.0156,-0.035733 -0.0092,2.68e-5 -0.01851,-3.69e-5 -0.02773,0 z m 0.554816,0.019244 c -0.0043,0.00348 -0.0092,0.00627 -0.01388,0.00963 0.004,-4.444e-4 0.008,-9.224e-4 0.01214,-0.00135 6.69e-4,-0.00269 0.0011,-0.00549 0.0017,-0.00829 z M 11.921598,17.281028 c -0.219573,0 -0.439431,0.05323 -0.627634,0.159408 -0.763021,0.416615 -1.695861,0.700842 -2.6284343,0.700842 -0.912225,0 -1.8755165,-0.28954 -2.6249649,-0.698094 -0.4035508,-0.22578 -0.9533996,-0.207255 -1.3298206,0.04535 -0.488329,0.319853 -1.1009196,0.564598 -1.7147231,0.677482 -0.5832822,0.107514 -0.9470634,0.569714 -0.8114158,1.032024 0.1356464,0.462309 0.7187987,0.749261 1.3020799,0.641753 0.8308385,-0.15321 1.5203745,-0.44621 1.9747922,-0.671984 0.9834408,0.416607 2.084966,0.693971 3.2040523,0.693971 1.0817849,0 2.0558033,-0.266543 2.7272603,-0.508455 0.200075,-0.06989 0.376214,-0.141617 0.528808,-0.206129 0.152607,0.06451 0.332124,0.133555 0.528806,0.206129 0.671459,0.241912 1.64547,0.508455 2.72726,0.508455 1.119083,0 2.220619,-0.277417 3.204052,-0.69672 0.451038,0.228461 1.142222,0.518782 1.973059,0.671983 0.583285,0.107515 1.16643,-0.179449 1.302081,-0.641751 0.135605,-0.462309 -0.226398,-0.924519 -0.809684,-1.032025 -0.613795,-0.112889 -1.228115,-0.357619 -1.716457,-0.67748 -0.376408,-0.255341 -0.92627,-0.273864 -1.329818,-0.04535 -0.746066,0.411239 -1.711017,0.700842 -2.623231,0.700842 -0.932574,0 -1.865422,-0.284227 -2.628434,-0.700842 -0.188216,-0.10616 -0.40805,-0.159408 -0.627634,-0.159408 z" />
  <path
     id="path217-0"
     style="stroke-width:0.0311507"
     d="m 12.193901,7.9861186 c -0.0084,0.00228 -0.01485,0.00409 -0.02236,0.00733 -6.39e-4,0.00204 -0.0027,0.00384 -0.0034,0.00589 0.0091,-0.00264 0.02018,-0.00565 0.03097,-0.011772 -6.3e-4,-0.00119 -0.0015,-0.00253 -0.0052,-0.00144 z m -0.02924,0.02507 c -8.11e-4,0.00192 -4.28e-4,0.00397 -0.0018,0.00589 -0.0062,0.013309 -0.01777,0.021274 -0.03097,0.028012 0.01717,-0.00492 0.03256,-0.00721 0.03613,0.00445 0.0029,-9.37e-5 0.0057,9.5e-5 0.0086,0 0.0054,-0.012949 0.01064,-0.025273 0.01549,-0.038343 -0.0091,2.89e-5 -0.01837,-3.96e-5 -0.02752,0 z m 0.550429,0.020649 c -0.0044,0.00372 -0.0091,0.00673 -0.01376,0.010325 0.004,-4.769e-4 0.008,-9.898e-4 0.01204,-0.00144 6.62e-4,-0.00289 0.0011,-0.00589 0.0018,-0.00889 z M 11.959971,19.963873 c -0.217837,0 -0.435956,0.05712 -0.622672,0.171047 -0.756987,0.447038 -1.6824521,0.75202 -2.6076508,0.75202 -0.9050128,0 -1.8606882,-0.310683 -2.6042111,-0.749071 -0.4003601,-0.242266 -0.9458616,-0.222388 -1.3193064,0.04866 -0.4844681,0.343209 -1.0922153,0.605825 -1.7011657,0.726952 -0.5786707,0.115365 -0.9395757,0.611315 -0.8050006,1.107385 0.1345739,0.496068 0.7131157,0.803972 1.2917851,0.688615 0.8242696,-0.164399 1.5083539,-0.478792 1.9591788,-0.721053 0.9756652,0.447028 2.0684813,0.744645 3.1787199,0.744645 1.0732307,0 2.0395488,-0.286007 2.7056958,-0.545583 0.198493,-0.07499 0.37324,-0.151958 0.524627,-0.221181 0.151401,0.06923 0.329499,0.143308 0.524626,0.221181 0.666149,0.259576 1.632459,0.545583 2.705697,0.545583 1.110235,0 2.203062,-0.297674 3.178718,-0.747596 0.447473,0.245145 1.133192,0.556665 1.95746,0.721053 0.578673,0.115366 1.157208,-0.192553 1.291786,-0.688612 0.134533,-0.496069 -0.224609,-0.992029 -0.803281,-1.107386 -0.608943,-0.121133 -1.218406,-0.383733 -1.702887,-0.726952 -0.373432,-0.273984 -0.918946,-0.293861 -1.319304,-0.04866 -0.740167,0.441269 -1.69749,0.75202 -2.602491,0.75202 -0.9252,0 -1.850673,-0.304982 -2.607653,-0.75202 -0.186727,-0.113911 -0.404822,-0.171047 -0.622671,-0.171047 z" />
</svg>
