<?xml version="1.0" encoding="UTF-8" standalone="no"?>
<!-- Created with Inkscape (http://www.inkscape.org/) -->

<svg
   width="24"
   height="24"
   viewBox="0 0 24 24"
   version="1.1"
   id="svg820"
   inkscape:version="1.4 (86a8ad7, 2024-10-11)"
   sodipodi:docname="dscenario-manager.svg"
   xml:space="preserve"
   xmlns:inkscape="http://www.inkscape.org/namespaces/inkscape"
   xmlns:sodipodi="http://sodipodi.sourceforge.net/DTD/sodipodi-0.dtd"
   xmlns="http://www.w3.org/2000/svg"
   xmlns:svg="http://www.w3.org/2000/svg"
   xmlns:rdf="http://www.w3.org/1999/02/22-rdf-syntax-ns#"
   xmlns:cc="http://creativecommons.org/ns#"
   xmlns:dc="http://purl.org/dc/elements/1.1/"><defs
     id="defs814"><style
       id="style186">.cls-1{fill:#020202;}</style></defs><sodipodi:namedview
     id="base"
     pagecolor="#8b8b8b"
     bordercolor="#666666"
     borderopacity="1.0"
     inkscape:pageopacity="0"
     inkscape:pageshadow="2"
     inkscape:zoom="32.000001"
     inkscape:cx="12.062499"
     inkscape:cy="12.140624"
     inkscape:document-units="px"
     inkscape:current-layer="layer2"
     showgrid="true"
     units="px"
     inkscape:window-width="1920"
     inkscape:window-height="991"
     inkscape:window-x="-9"
     inkscape:window-y="-9"
     inkscape:window-maximized="1"
     showguides="false"
     inkscape:showpageshadow="2"
     inkscape:pagecheckerboard="0"
     inkscape:deskcolor="#8b8b8b"><inkscape:grid
       type="xygrid"
       id="grid1376"
       originx="0"
       originy="0"
       spacingx="0.5"
       spacingy="0.5"
       units="px" /></sodipodi:namedview><metadata
     id="metadata817"><rdf:RDF><cc:Work
         rdf:about=""><dc:format>image/svg+xml</dc:format><dc:type
           rdf:resource="http://purl.org/dc/dcmitype/StillImage" /></cc:Work></rdf:RDF></metadata><g
     inkscape:label="Layer 1"
     inkscape:groupmode="layer"
     id="layer1"
     transform="translate(0,-290.64999)"><path
       style="fill:#000000;fill-rule:evenodd;stroke:none;stroke-width:0;stroke-linecap:butt;stroke-linejoin:miter;stroke-opacity:1;stroke-miterlimit:4;stroke-dasharray:none;fill-opacity:1"
       d="m 5,297.64999 h 2 v 2 H 5 Z"
       id="path823"
       inkscape:connector-curvature="0" /><path
       style="fill:#000000;fill-opacity:1;fill-rule:evenodd;stroke:#000000;stroke-width:0;stroke-linecap:butt;stroke-linejoin:miter;stroke-miterlimit:4;stroke-dasharray:none;stroke-opacity:1"
       d="M 10.003906,312.6578 1,312.64999 v -21 h 22 v 12 h -2 v -8 H 3 v 15 l 7.007929,-5.6e-4 z"
       id="path821"
       inkscape:connector-curvature="0"
       sodipodi:nodetypes="ccccccccccc" /><path
       style="fill:#000000;fill-opacity:1;fill-rule:evenodd;stroke:none;stroke-width:0;stroke-linecap:butt;stroke-linejoin:miter;stroke-miterlimit:4;stroke-dasharray:none;stroke-opacity:1"
       d="m 8,297.64999 h 10 v 2 H 8 Z"
       id="path823-3"
       inkscape:connector-curvature="0"
       sodipodi:nodetypes="ccccc" /><path
       style="fill:#000000;fill-opacity:1;fill-rule:evenodd;stroke:none;stroke-width:0;stroke-linecap:butt;stroke-linejoin:miter;stroke-miterlimit:4;stroke-dasharray:none;stroke-opacity:1"
       d="m 5,301.64999 h 2 v 2 H 5 Z"
       id="path823-6"
       inkscape:connector-curvature="0" /><path
       style="fill:#000000;fill-opacity:1;fill-rule:evenodd;stroke:none;stroke-width:0;stroke-linecap:butt;stroke-linejoin:miter;stroke-miterlimit:4;stroke-dasharray:none;stroke-opacity:1"
       d="m 8,301.64999 h 9.934792 v 2 H 8 Z"
       id="path823-3-7"
       inkscape:connector-curvature="0"
       sodipodi:nodetypes="ccccc" /><path
       style="fill:#000000;fill-opacity:1;fill-rule:evenodd;stroke:none;stroke-width:0;stroke-linecap:butt;stroke-linejoin:miter;stroke-miterlimit:4;stroke-dasharray:none;stroke-opacity:1"
       d="m 5,305.64999 h 2 v 2 H 5 Z"
       id="path823-6-5"
       inkscape:connector-curvature="0"
       sodipodi:nodetypes="ccccc" /><path
       style="fill:#000000;fill-opacity:1;fill-rule:evenodd;stroke:none;stroke-width:0;stroke-linecap:butt;stroke-linejoin:miter;stroke-miterlimit:4;stroke-dasharray:none;stroke-opacity:1"
       d="m 8,305.64999 h 4.628218 v 2 H 8 Z"
       id="path823-3-7-3"
       inkscape:connector-curvature="0"
       sodipodi:nodetypes="ccccc" /><g
       id="path54"><path
         style="color:#000000;font-style:normal;font-variant:normal;font-weight:normal;font-stretch:normal;font-size:medium;line-height:normal;font-family:sans-serif;font-variant-ligatures:normal;font-variant-position:normal;font-variant-caps:normal;font-variant-numeric:normal;font-variant-alternates:normal;font-variant-east-asian:normal;font-feature-settings:normal;font-variation-settings:normal;text-indent:0;text-align:start;text-decoration-line:none;text-decoration-style:solid;text-decoration-color:#000000;letter-spacing:normal;word-spacing:normal;text-transform:none;writing-mode:lr-tb;direction:ltr;text-orientation:mixed;dominant-baseline:auto;baseline-shift:baseline;text-anchor:start;white-space:normal;shape-padding:0;shape-margin:0;inline-size:0;clip-rule:nonzero;display:inline;overflow:visible;visibility:visible;isolation:auto;mix-blend-mode:normal;color-interpolation:sRGB;color-interpolation-filters:linearRGB;solid-color:#000000;solid-opacity:1;vector-effect:none;fill:#000000;fill-opacity:1;fill-rule:nonzero;stroke:none;stroke-linecap:butt;stroke-linejoin:miter;stroke-miterlimit:4;stroke-dasharray:none;stroke-dashoffset:0;stroke-opacity:1;-inkscape-stroke:none;paint-order:fill markers;color-rendering:auto;image-rendering:auto;shape-rendering:auto;text-rendering:auto;enable-background:accumulate;stop-color:#000000;stop-opacity:1"
         d="m 17.593766,309.07158 c 1.024137,0.46668 1.53694,-0.0947 2.3048,-0.15087 0.489347,-0.0358 1.003394,0.0416 1.467176,-0.1186 0.487459,-0.16833 -0.377639,0.0786 0.536547,0.0162 l 0.71875,-0.0491 0.03125,-1.93531 c 0.0077,-0.47649 -0.386765,-0.86333 -0.878114,-0.86333 h -6.134951 c -0.490361,0 -0.894623,0.38683 -0.88798,0.86333 l 0.03125,2.24159 c 0.0036,0.259 0.706856,-0.40478 1.655022,0.0274 m 4.880964,1.87527 c -0.205222,0.0246 -0.4364,-0.4014 -1.211901,0.14038 -0.784384,0.54856 -0.04913,0.47398 -1.528105,0.24703 -1.453327,-0.22197 -3.195436,0.18966 -3.76473,-0.0688 l -0.0625,1.67798 c -0.01759,0.47227 0.397619,0.85442 0.88798,0.85442 h 6.134951 c 0.491349,0 0.878114,-0.38084 0.878114,-0.85344 v -0.25455 -1.74425 c 0,-0.26539 -0.03027,0.10843 -0.03325,-0.32865 -0.01389,0.0158 -0.39341,0.20275 -0.675586,0.23605"
         id="path1"
         sodipodi:nodetypes="csccccsssscccccsssscscc" /><path
         style="color:#000000;font-style:normal;font-variant:normal;font-weight:normal;font-stretch:normal;font-size:medium;line-height:normal;font-family:sans-serif;font-variant-ligatures:normal;font-variant-position:normal;font-variant-caps:normal;font-variant-numeric:normal;font-variant-alternates:normal;font-variant-east-asian:normal;font-feature-settings:normal;font-variation-settings:normal;text-indent:0;text-align:start;text-decoration-line:none;text-decoration-style:solid;text-decoration-color:#000000;letter-spacing:normal;word-spacing:normal;text-transform:none;writing-mode:lr-tb;direction:ltr;text-orientation:mixed;dominant-baseline:auto;baseline-shift:baseline;text-anchor:start;white-space:normal;shape-padding:0;shape-margin:0;inline-size:0;clip-rule:nonzero;display:inline;overflow:visible;visibility:visible;isolation:auto;mix-blend-mode:normal;color-interpolation:sRGB;color-interpolation-filters:linearRGB;solid-color:#000000;solid-opacity:1;vector-effect:none;fill:#000000;fill-opacity:1;fill-rule:nonzero;stroke:none;stroke-linecap:butt;stroke-linejoin:miter;stroke-miterlimit:4;stroke-dasharray:none;stroke-dashoffset:0;stroke-opacity:1;-inkscape-stroke:none;paint-order:fill markers;color-rendering:auto;image-rendering:auto;shape-rendering:auto;text-rendering:auto;enable-background:accumulate;stop-color:#000000;stop-opacity:1"
         d="m 15.638672,305.92187 c -0.516302,0 -0.9375,0.40812 -0.9375,0.91211 v 2.52344 c 0,0.0221 0.0039,0.0439 0.01953,0.0645 0.0156,0.0205 0.38698,-0.37675 0.4082,-0.37695 0.04244,-4e-4 0.23146,-0.3317 0.275391,-0.3555 0.08786,-0.0475 -0.292919,0.59292 -0.144531,0.51953 0.296774,-0.14676 0.700864,-0.26899 1.158203,-0.0605 l 0.03906,-0.0899 c -0.490827,-0.2237 -0.930914,-0.0905 -1.240234,0.0625 -0.15466,0.0765 -0.06046,-0.46716 -0.140625,-0.42382 -0.0316,0.0171 -0.20229,0.2097 -0.21289,0.2129 l -0.0625,-2.07618 c -0.01351,-0.4489 0.373471,-0.81445 0.837891,-0.81445 h 6.134765 c 0.465456,0 0.837326,0.36561 0.830079,0.81445 l -0.03125,1.88868 -0.673829,0.0469 c -0.203952,0.0139 -0.295057,0.007 -0.347656,0 -0.0092,-0.0106 -0.02344,-0.0273 -0.02344,-0.0273 l 0.04687,-0.0117 -0.0078,-0.0176 c 0,0 -0.04488,-0.0195 -0.04492,-0.0195 -7.9e-5,10e-6 -0.0077,0.002 -0.0078,0.002 h -0.002 c -0.0031,9.6e-4 -0.0055,0.001 -0.0078,0.002 -2.29e-4,9e-5 2.35e-4,0.002 0,0.002 h -0.002 c -4.87e-4,2e-4 -0.0014,-2.1e-4 -0.002,0 -6.98e-4,3e-4 -9.78e-4,0.002 -0.002,0.002 -0.0032,10e-4 -0.0059,0.002 -0.0098,0.004 -0.0046,0.002 -0.0082,0.003 -0.01563,0.006 -0.02406,0.009 -0.06248,0.024 -0.123047,0.0449 -0.448519,0.15488 -0.958068,0.0789 -1.455078,0.11523 -0.395059,0.0289 -0.718503,0.18599 -1.064453,0.27344 -0.34595,0.0875 -0.714348,0.11177 -1.216797,-0.11719 l -0.03906,0.0899 c 0.521688,0.23772 0.920846,0.21366 1.279297,0.12304 0.35845,-0.0906 0.676028,-0.24226 1.048828,-0.26953 0.481683,-0.0352 1.001424,0.0443 1.480468,-0.12109 0.02268,-0.008 0.02964,-0.0114 0.04687,-0.0176 0.0061,0.006 0.01103,0.0159 0.01758,0.0195 0.01346,0.007 0.02623,0.0121 0.04297,0.0156 0.06696,0.0143 0.185792,0.0157 0.416016,0 l 0.763672,-0.0527 0.03125,-1.98047 c 0.0081,-0.50413 -0.410492,-0.91211 -0.927735,-0.91211 z m 7.029297,4.59571 -0.08008,0.0918 -0.002,0.002 c -2.08e-4,1.7e-4 -0.0015,-4.7e-4 -0.002,0 l -0.002,0.004 c -0.0023,10e-4 -0.0044,0.002 -0.0078,0.004 -0.0112,0.006 -0.02841,0.0136 -0.04883,0.0234 -0.04084,0.0197 -0.09729,0.0463 -0.16211,0.0723 -0.129643,0.052 -0.292808,0.10541 -0.425781,0.1211 l 0.01172,0.0976 c 0.149202,-0.0176 0.317039,-0.0751 0.451172,-0.1289 0.06707,-0.0269 0.124924,-0.0515 0.167968,-0.0723 0.0016,-7.6e-4 0.0024,-10e-4 0.0039,-0.002 0.0012,0.0435 0.0017,0.10048 0.0039,0.12109 0.0018,0.0173 0.0022,0.0267 0.0098,0.043 9.51e-4,0.002 0.0037,0.007 0.0039,0.008 2.42e-4,3.9e-4 0.0056,0.008 0.0059,0.008 1.27e-4,1.4e-4 0.0036,0.002 0.0059,0.004 6.16e-4,0.0145 0.002,0.0334 0.002,0.0625 v 1.74414 0.25586 c 0,0.44569 -0.364221,0.80274 -0.830079,0.80274 h -6.134765 c -0.464731,0 -0.85437,-0.36031 -0.837891,-0.80274 l 0.06055,-1.625 c 0.151035,0.054 0.335892,0.0829 0.576172,0.084 0.268775,10e-4 0.585565,-0.0196 0.929687,-0.041 0.688245,-0.0428 1.483869,-0.0903 2.203125,0.0195 0.368739,0.0566 0.598523,0.1044 0.75,0.13477 0.151478,0.0304 0.225486,0.0479 0.292969,0.0332 0.03374,-0.007 0.0631,-0.0253 0.08789,-0.0469 0.02479,-0.0215 0.04837,-0.0473 0.08008,-0.0801 0.06341,-0.0655 0.159956,-0.16151 0.353516,-0.29688 0.380887,-0.26609 0.61442,-0.28888 0.78125,-0.25586 0.08342,0.0165 0.151534,0.0479 0.214843,0.0762 0.06331,0.0283 0.124262,0.0571 0.19336,0.0488 l -0.01172,-0.0976 c -0.03351,0.004 -0.07864,-0.0133 -0.140625,-0.041 -0.06199,-0.0277 -0.170608,0.53095 -0.267578,0.51175 -0.19394,-0.0384 -0.431559,-0.59775 -0.826172,-0.32227 -0.198632,0.13892 -0.303585,0.24089 -0.369141,0.3086 -0.03278,0.0338 -0.05462,0.0589 -0.07227,0.0742 -0.01764,0.0153 -0.02911,0.02 -0.04492,0.0234 -0.03162,0.007 -0.100816,-0.003 -0.251953,-0.0332 -0.151137,-0.0303 -0.383156,-0.0779 -0.753907,-0.13476 -0.73407,-0.11212 -1.536144,-0.0643 -2.224609,-0.0215 -0.344232,0.0214 -0.660428,0.0422 -0.923828,0.041 -0.2634,-0.001 -0.474304,-0.0253 -0.603516,-0.084 l -0.06641,-0.0312 -0.06641,1.75196 c -0.0187,0.50211 0.421509,0.90625 0.9375,0.90625 h 6.134765 c 0.516841,0 0.927735,-0.40283 0.927735,-0.90235 v -0.25586 -1.74414 c 0,-0.0336 9.11e-4,-0.0567 0,-0.0742 -9.11e-4,-0.0175 -0.0012,-0.0283 -0.0059,-0.043 -0.0012,-0.004 -0.0055,-0.0111 -0.0059,-0.0117 -1.95e-4,-3.2e-4 -0.0076,-0.01 -0.0078,-0.01 -1.29e-4,-1.4e-4 -0.0042,-0.003 -0.0078,-0.006 -0.0027,-0.0283 -0.0052,-0.0804 -0.0059,-0.18359 z"
         id="path2"
         sodipodi:nodetypes="csscsccccsccsssccccccccsccsccccccccccccccccccccccccccccsccscccccccscssscccscccccccsccssccccccsccccssscsscccccc" /></g></g><g
     inkscape:groupmode="layer"
     id="layer2"
     inkscape:label="Layer 2"><path
       style="fill:#000000;fill-opacity:1;fill-rule:evenodd;stroke:none;stroke-width:0;stroke-linecap:butt;stroke-linejoin:miter;stroke-miterlimit:4;stroke-dasharray:none;stroke-opacity:1"
       d="m 14.6875,307.46249 h 7.940718 v 1.9375 H 14.6875 Z"
       id="path823-3-7-3-0"
       inkscape:connector-curvature="0"
       sodipodi:nodetypes="ccccc"
       transform="translate(0,-290.64999)" /><path
       style="fill:#000000;fill-opacity:1;fill-rule:evenodd;stroke:none;stroke-width:0;stroke-linecap:butt;stroke-linejoin:miter;stroke-miterlimit:4;stroke-dasharray:none;stroke-opacity:1"
       d="m 14.75,310.52499 h 7.940718 v 2 H 14.75 Z"
       id="path823-3-7-3-0-9"
       inkscape:connector-curvature="0"
       sodipodi:nodetypes="ccccc"
       transform="translate(0,-290.64999)" /></g></svg>
