<?xml version="1.0" encoding="UTF-8" standalone="no"?>
<!-- Created with Inkscape (http://www.inkscape.org/) -->

<svg
   width="24"
   height="24"
   viewBox="0 0 24 24"
   version="1.1"
   id="svg820"
   inkscape:version="1.2.2 (732a01da63, 2022-12-09)"
   sodipodi:docname="workspace-manager.svg"
   xml:space="preserve"
   xmlns:inkscape="http://www.inkscape.org/namespaces/inkscape"
   xmlns:sodipodi="http://sodipodi.sourceforge.net/DTD/sodipodi-0.dtd"
   xmlns="http://www.w3.org/2000/svg"
   xmlns:svg="http://www.w3.org/2000/svg"
   xmlns:rdf="http://www.w3.org/1999/02/22-rdf-syntax-ns#"
   xmlns:cc="http://creativecommons.org/ns#"
   xmlns:dc="http://purl.org/dc/elements/1.1/"><defs
     id="defs814"><style
       id="style186">.cls-1{fill:#020202;}</style></defs><sodipodi:namedview
     id="base"
     pagecolor="#8b8b8b"
     bordercolor="#666666"
     borderopacity="1.0"
     inkscape:pageopacity="0"
     inkscape:pageshadow="2"
     inkscape:zoom="11.313709"
     inkscape:cx="-13.523417"
     inkscape:cy="16.793785"
     inkscape:document-units="px"
     inkscape:current-layer="layer1"
     showgrid="true"
     units="px"
     inkscape:window-width="1920"
     inkscape:window-height="1009"
     inkscape:window-x="1912"
     inkscape:window-y="-8"
     inkscape:window-maximized="1"
     showguides="false"
     inkscape:showpageshadow="2"
     inkscape:pagecheckerboard="0"
     inkscape:deskcolor="#8b8b8b"><inkscape:grid
       type="xygrid"
       id="grid1376"
       originx="0"
       originy="0"
       spacingx="0.5"
       spacingy="0.5" /></sodipodi:namedview><metadata
     id="metadata817"><rdf:RDF><cc:Work
         rdf:about=""><dc:format>image/svg+xml</dc:format><dc:type
           rdf:resource="http://purl.org/dc/dcmitype/StillImage" /></cc:Work></rdf:RDF></metadata><g
     inkscape:label="Layer 1"
     inkscape:groupmode="layer"
     id="layer1"
     transform="translate(0,-290.64999)"><path
       style="fill:#000000;fill-rule:evenodd;stroke:none;stroke-width:0;stroke-linecap:butt;stroke-linejoin:miter;stroke-opacity:1;stroke-miterlimit:4;stroke-dasharray:none;fill-opacity:1"
       d="m 5,297.64999 h 2 v 2 H 5 Z"
       id="path823"
       inkscape:connector-curvature="0" /><path
       style="fill:#000000;fill-opacity:1;fill-rule:evenodd;stroke:#000000;stroke-width:0;stroke-linecap:butt;stroke-linejoin:miter;stroke-miterlimit:4;stroke-dasharray:none;stroke-opacity:1"
       d="M 10.003906,312.6578 1,312.64999 v -21 h 22 v 12 h -2 v -8 H 3 v 15 l 7.007929,-5.6e-4 z"
       id="path821"
       inkscape:connector-curvature="0"
       sodipodi:nodetypes="ccccccccccc" /><path
       style="fill:#000000;fill-opacity:1;fill-rule:evenodd;stroke:none;stroke-width:0;stroke-linecap:butt;stroke-linejoin:miter;stroke-miterlimit:4;stroke-dasharray:none;stroke-opacity:1"
       d="m 8,297.64999 h 10 v 2 H 8 Z"
       id="path823-3"
       inkscape:connector-curvature="0"
       sodipodi:nodetypes="ccccc" /><path
       style="fill:#000000;fill-opacity:1;fill-rule:evenodd;stroke:none;stroke-width:0;stroke-linecap:butt;stroke-linejoin:miter;stroke-miterlimit:4;stroke-dasharray:none;stroke-opacity:1"
       d="m 5,301.64999 h 2 v 2 H 5 Z"
       id="path823-6"
       inkscape:connector-curvature="0" /><path
       style="fill:#000000;fill-opacity:1;fill-rule:evenodd;stroke:none;stroke-width:0;stroke-linecap:butt;stroke-linejoin:miter;stroke-miterlimit:4;stroke-dasharray:none;stroke-opacity:1"
       d="m 8,301.64999 h 9.934792 v 2 H 8 Z"
       id="path823-3-7"
       inkscape:connector-curvature="0"
       sodipodi:nodetypes="ccccc" /><path
       style="fill:#000000;fill-opacity:1;fill-rule:evenodd;stroke:none;stroke-width:0;stroke-linecap:butt;stroke-linejoin:miter;stroke-miterlimit:4;stroke-dasharray:none;stroke-opacity:1"
       d="m 5,305.64999 h 2 v 2 H 5 Z"
       id="path823-6-5"
       inkscape:connector-curvature="0"
       sodipodi:nodetypes="ccccc" /><path
       style="fill:#000000;fill-opacity:1;fill-rule:evenodd;stroke:none;stroke-width:0;stroke-linecap:butt;stroke-linejoin:miter;stroke-miterlimit:4;stroke-dasharray:none;stroke-opacity:1"
       d="m 8,305.64999 h 4.628218 v 2 H 8 Z"
       id="path823-3-7-3"
       inkscape:connector-curvature="0"
       sodipodi:nodetypes="ccccc" /><path
       id="path54"
       stroke="#000000"
       stroke-width="0.0986644"
       d="m 17.593766,309.07158 c 1.024137,0.46668 2.01966,0.10756 2.3048,-0.15087 0.284153,-0.25949 0.749849,-0.60679 1.279676,-0.71235 0.627506,-0.12537 1.474047,-0.17267 1.474047,-0.32758 0,0 0,-0.0178 0,-0.0178 0,0 0,-1.02906 0,-1.02906 0,-0.47655 -0.386765,-0.86333 -0.878114,-0.86333 0,0 -6.134951,0 -6.134951,0 -0.490361,0 -0.88798,0.38678 -0.88798,0.86333 0,0 0,2.52284 0,2.52284 0.24074,-0.0956 1.894356,-0.71728 2.842522,-0.28513 m 4.693464,-0.15598 c -0.205222,0.0246 -0.5614,-0.0889 -1.336901,0.45288 -0.784384,0.54856 -1.080377,1.75523 -2.559355,1.52828 -1.453327,-0.22197 -3.070436,0.78341 -3.63973,0.52492 0,0 0,1.55298 0,1.55298 0,0.4726 0.397619,0.85442 0.88798,0.85442 0,0 6.134951,0 6.134951,0 0.491349,0 0.878114,-0.38084 0.878114,-0.85344 0,0 0,-0.25455 0,-0.25455 0,0 0,-2.49425 0,-2.49425 0,-0.26539 9.82e-4,-0.95407 -0.002,-1.39115 -0.01389,0.0158 -0.08091,0.0465 -0.363086,0.0798"
       style="paint-order:fill markers" /></g><g
     inkscape:groupmode="layer"
     id="layer2"
     inkscape:label="Layer 2" /></svg>
